<?xml version="1.0" encoding="UTF-8"?>
<!DOCTYPE svg PUBLIC "-//W3C//DTD SVG 1.1//EN" "http://www.w3.org/Graphics/SVG/1.1/DTD/svg11.dtd">
<!-- Creator: CorelDRAW 2020 (64 Bit) -->
<svg xmlns="http://www.w3.org/2000/svg" xml:space="preserve" width="74.2261mm" height="72.9668mm" version="1.1" style="shape-rendering:geometricPrecision; text-rendering:geometricPrecision; image-rendering:optimizeQuality; fill-rule:evenodd; clip-rule:evenodd"
viewBox="0 0 10336.18 10160.82"
 xmlns:xlink="http://www.w3.org/1999/xlink"
 xmlns:xodm="http://www.corel.com/coreldraw/odm/2003">
 <defs>
  <style type="text/css">
   <![CDATA[
    .fil52 {fill:#848688;fill-rule:nonzero}
    .fil9 {fill:black;fill-rule:nonzero}
    .fil21 {fill:#0053A8;fill-rule:nonzero}
    .fil53 {fill:#0078EE;fill-rule:nonzero}
    .fil7 {fill:#0078EF;fill-rule:nonzero}
    .fil16 {fill:#202735;fill-rule:nonzero}
    .fil6 {fill:#3C4456;fill-rule:nonzero}
    .fil8 {fill:#414A5C;fill-rule:nonzero}
    .fil30 {fill:#46495F;fill-rule:nonzero}
    .fil22 {fill:#49A3FE;fill-rule:nonzero}
    .fil29 {fill:#697082;fill-rule:nonzero}
    .fil5 {fill:#697182;fill-rule:nonzero}
    .fil0 {fill:#C4C8CD;fill-rule:nonzero}
    .fil26 {fill:#F17E59;fill-rule:nonzero}
    .fil45 {fill:white;fill-rule:nonzero}
    .fil44 {fill:white;fill-rule:nonzero;fill-opacity:0.250980}
    .fil3 {fill:url(#id0);fill-rule:nonzero}
    .fil35 {fill:url(#id1);fill-rule:nonzero}
    .fil14 {fill:url(#id2);fill-rule:nonzero}
    .fil40 {fill:url(#id3);fill-rule:nonzero}
    .fil42 {fill:url(#id4);fill-rule:nonzero}
    .fil46 {fill:url(#id5);fill-rule:nonzero}
    .fil28 {fill:url(#id6);fill-rule:nonzero}
    .fil25 {fill:url(#id7);fill-rule:nonzero}
    .fil15 {fill:url(#id8);fill-rule:nonzero}
    .fil48 {fill:url(#id9);fill-rule:nonzero}
    .fil50 {fill:url(#id10);fill-rule:nonzero}
    .fil39 {fill:url(#id11);fill-rule:nonzero}
    .fil11 {fill:url(#id12);fill-rule:nonzero}
    .fil13 {fill:url(#id13);fill-rule:nonzero}
    .fil38 {fill:url(#id14);fill-rule:nonzero}
    .fil32 {fill:url(#id15);fill-rule:nonzero}
    .fil18 {fill:url(#id16);fill-rule:nonzero}
    .fil10 {fill:url(#id17);fill-rule:nonzero}
    .fil41 {fill:url(#id18);fill-rule:nonzero}
    .fil34 {fill:url(#id19);fill-rule:nonzero}
    .fil20 {fill:url(#id20);fill-rule:nonzero}
    .fil17 {fill:url(#id21);fill-rule:nonzero}
    .fil2 {fill:url(#id22);fill-rule:nonzero}
    .fil33 {fill:url(#id23);fill-rule:nonzero}
    .fil36 {fill:url(#id24);fill-rule:nonzero}
    .fil23 {fill:url(#id25);fill-rule:nonzero}
    .fil24 {fill:url(#id26);fill-rule:nonzero}
    .fil12 {fill:url(#id27);fill-rule:nonzero}
    .fil1 {fill:url(#id28);fill-rule:nonzero}
    .fil47 {fill:url(#id29);fill-rule:nonzero}
    .fil19 {fill:url(#id30);fill-rule:nonzero}
    .fil51 {fill:url(#id31);fill-rule:nonzero}
    .fil43 {fill:url(#id32);fill-rule:nonzero}
    .fil27 {fill:url(#id33);fill-rule:nonzero}
    .fil49 {fill:url(#id34);fill-rule:nonzero}
    .fil4 {fill:url(#id35);fill-rule:nonzero}
    .fil31 {fill:url(#id36);fill-rule:nonzero}
    .fil37 {fill:url(#id37);fill-rule:nonzero;fill-opacity:0.501961}
   ]]>
  </style>
  <linearGradient id="id0" gradientUnits="userSpaceOnUse" x1="6275.1" y1="3929.05" x2="5611.91" y2="3929.05">
   <stop offset="0" style="stop-opacity:1; stop-color:white"/>
   <stop offset="1" style="stop-opacity:1; stop-color:#D8DCDF"/>
  </linearGradient>
  <linearGradient id="id1" gradientUnits="userSpaceOnUse" x1="4027.65" y1="5439.64" x2="4985.58" y2="5439.64">
   <stop offset="0" style="stop-opacity:1; stop-color:#1C1C1C"/>
   <stop offset="1" style="stop-opacity:1; stop-color:#2F3030"/>
  </linearGradient>
  <linearGradient id="id2" gradientUnits="userSpaceOnUse" xlink:href="#id0" x1="2295.97" y1="8370.98" x2="2295.97" y2="7645.96">
  </linearGradient>
  <linearGradient id="id3" gradientUnits="userSpaceOnUse" x1="6459.32" y1="4629.09" x2="9001.54" y2="4629.09">
   <stop offset="0" style="stop-opacity:1; stop-color:white"/>
   <stop offset="1" style="stop-opacity:1; stop-color:#697182"/>
  </linearGradient>
  <linearGradient id="id4" gradientUnits="userSpaceOnUse" x1="7343.57" y1="2381.61" x2="8338.35" y2="3339.56">
   <stop offset="0" style="stop-opacity:1; stop-color:white"/>
   <stop offset="1" style="stop-opacity:1; stop-color:#0057A8"/>
  </linearGradient>
  <linearGradient id="id5" gradientUnits="userSpaceOnUse" xlink:href="#id0" x1="9409.2" y1="6233.88" x2="9799.64" y2="5806.26">
  </linearGradient>
  <linearGradient id="id6" gradientUnits="userSpaceOnUse" x1="3360.21" y1="3029.82" x2="3714.45" y2="2939.53">
   <stop offset="0" style="stop-opacity:1; stop-color:white"/>
   <stop offset="1" style="stop-opacity:1; stop-color:#BA654B"/>
  </linearGradient>
  <linearGradient id="id7" gradientUnits="userSpaceOnUse" x1="2717.28" y1="5553.59" x2="2431.09" y2="5130.18">
   <stop offset="0" style="stop-opacity:1; stop-color:white"/>
   <stop offset="1" style="stop-opacity:1; stop-color:#46495F"/>
  </linearGradient>
  <linearGradient id="id8" gradientUnits="userSpaceOnUse" x1="2295.97" y1="8018.71" x2="2295.97" y2="7613.43">
   <stop offset="0" style="stop-opacity:1; stop-color:white"/>
   <stop offset="1" style="stop-opacity:1; stop-color:#C4C8CD"/>
  </linearGradient>
  <linearGradient id="id9" gradientUnits="userSpaceOnUse" xlink:href="#id3" x1="8445.11" y1="5697.53" x2="9776.52" y2="5697.53">
  </linearGradient>
  <linearGradient id="id10" gradientUnits="userSpaceOnUse" xlink:href="#id8" x1="3098.45" y1="5476.47" x2="3455.6" y2="4223.81">
  </linearGradient>
  <linearGradient id="id11" gradientUnits="userSpaceOnUse" xlink:href="#id8" x1="5280.33" y1="4592.24" x2="6411.62" y2="4592.24">
  </linearGradient>
  <linearGradient id="id12" gradientUnits="userSpaceOnUse" xlink:href="#id8" x1="1374.88" y1="8423.99" x2="1374.88" y2="8902.96">
  </linearGradient>
  <linearGradient id="id13" gradientUnits="userSpaceOnUse" xlink:href="#id8" x1="2074.91" y1="8423.99" x2="2074.91" y2="8902.96">
  </linearGradient>
  <linearGradient id="id14" gradientUnits="userSpaceOnUse" xlink:href="#id3" x1="5280.78" y1="4629.09" x2="6367.53" y2="4629.09">
  </linearGradient>
  <linearGradient id="id15" gradientUnits="userSpaceOnUse" x1="5243.46" y1="7981.86" x2="5243.46" y2="9750.37">
   <stop offset="0" style="stop-opacity:1; stop-color:#1C1C1C"/>
   <stop offset="0.360784" style="stop-opacity:1; stop-color:#3D3D3D"/>
   <stop offset="0.988235" style="stop-opacity:1; stop-color:#4B4B4B"/>
   <stop offset="1" style="stop-opacity:1; stop-color:#4B4B4B"/>
  </linearGradient>
  <linearGradient id="id16" gradientUnits="userSpaceOnUse" xlink:href="#id3" x1="1123.04" y1="6209.07" x2="3666.74" y2="6209.07">
  </linearGradient>
  <linearGradient id="id17" gradientUnits="userSpaceOnUse" xlink:href="#id0" x1="2249.1" y1="8430.97" x2="2249.1" y2="8906.19">
  </linearGradient>
  <linearGradient id="id18" gradientUnits="userSpaceOnUse" xlink:href="#id3" x1="8630.92" y1="3207.59" x2="8373.44" y2="2593.72">
  </linearGradient>
  <linearGradient id="id19" gradientUnits="userSpaceOnUse" x1="5329.2" y1="3965.9" x2="5329.2" y2="6508.11">
   <stop offset="0" style="stop-opacity:1; stop-color:#2D2D2D"/>
   <stop offset="1" style="stop-opacity:1; stop-color:#333333"/>
  </linearGradient>
  <linearGradient id="id20" gradientUnits="userSpaceOnUse" xlink:href="#id7" x1="3652.64" y1="8866.12" x2="3900.3" y2="8423.99">
  </linearGradient>
  <linearGradient id="id21" gradientUnits="userSpaceOnUse" xlink:href="#id7" x1="638" y1="4076.44" x2="1080.13" y2="4629.09">
  </linearGradient>
  <linearGradient id="id22" gradientUnits="userSpaceOnUse" xlink:href="#id0" x1="6275.1" y1="3855.38" x2="5611.91" y2="3855.38">
  </linearGradient>
  <linearGradient id="id23" gradientUnits="userSpaceOnUse" x1="9038.39" y1="6065.98" x2="5206.61" y2="3892.21">
   <stop offset="0" style="stop-opacity:1; stop-color:#1C1C1C"/>
   <stop offset="0.94902" style="stop-opacity:1; stop-color:#3D3D3E"/>
   <stop offset="1" style="stop-opacity:1; stop-color:#3D3D3E"/>
  </linearGradient>
  <linearGradient id="id24" gradientUnits="userSpaceOnUse" x1="9591.05" y1="7023.92" x2="5022.42" y2="7023.92">
   <stop offset="0" style="stop-opacity:1; stop-color:#1C1C1C"/>
   <stop offset="0.94902" style="stop-opacity:1; stop-color:#515151"/>
   <stop offset="1" style="stop-opacity:1; stop-color:#515151"/>
  </linearGradient>
  <linearGradient id="id25" gradientUnits="userSpaceOnUse" xlink:href="#id7" x1="4508.05" y1="9324.87" x2="4708.56" y2="8891.15">
  </linearGradient>
  <linearGradient id="id26" gradientUnits="userSpaceOnUse" xlink:href="#id4" x1="2751.6" y1="7726.19" x2="3903.15" y2="6778.08">
  </linearGradient>
  <linearGradient id="id27" gradientUnits="userSpaceOnUse" xlink:href="#id8" x1="2396.69" y1="8430.77" x2="2396.69" y2="8905.16">
  </linearGradient>
  <linearGradient id="id28" gradientUnits="userSpaceOnUse" xlink:href="#id0" x1="5906.65" y1="4481.72" x2="5832.97" y2="4039.59">
  </linearGradient>
  <linearGradient id="id29" gradientUnits="userSpaceOnUse" xlink:href="#id0" x1="9266.73" y1="5906.19" x2="9642.76" y2="5549.16">
  </linearGradient>
  <linearGradient id="id30" gradientUnits="userSpaceOnUse" xlink:href="#id3" x1="2111.84" y1="6571.02" x2="3809.83" y2="6571.02">
  </linearGradient>
  <linearGradient id="id31" gradientUnits="userSpaceOnUse" xlink:href="#id4" x1="4911.9" y1="4444.87" x2="4543.45" y2="4444.87">
  </linearGradient>
  <linearGradient id="id32" gradientUnits="userSpaceOnUse" xlink:href="#id4" x1="8596.26" y1="3339.56" x2="9406.82" y2="4150.12">
  </linearGradient>
  <linearGradient id="id33" gradientUnits="userSpaceOnUse" xlink:href="#id6" x1="3253.92" y1="3398.96" x2="3401.29" y2="3196.07">
  </linearGradient>
  <linearGradient id="id34" gradientUnits="userSpaceOnUse" xlink:href="#id6" x1="5106.55" y1="5321.62" x2="3651.23" y2="5458.77">
  </linearGradient>
  <linearGradient id="id35" gradientUnits="userSpaceOnUse" xlink:href="#id0" x1="4875.07" y1="3744.84" x2="5427.68" y2="3744.84">
  </linearGradient>
  <radialGradient id="id36" gradientUnits="userSpaceOnUse" gradientTransform="matrix(1.93688 0.00600431 -0.00282085 0.909952 -5299 630)" cx="5678.35" cy="7378.04" r="2504.21" fx="5678.35" fy="7378.04">
   <stop offset="0" style="stop-opacity:1; stop-color:#3E3E3E"/>
   <stop offset="0.360784" style="stop-opacity:1; stop-color:#303030"/>
   <stop offset="0.988235" style="stop-opacity:1; stop-color:#282828"/>
   <stop offset="1" style="stop-opacity:1; stop-color:#282828"/>
  </radialGradient>
  <linearGradient id="id37" gradientUnits="userSpaceOnUse" x1="5138.63" y1="4665.93" x2="9001.57" y2="4665.93">
   <stop offset="0" style="stop-opacity:1; stop-color:white"/>
   <stop offset="1" style="stop-opacity:1; stop-color:black"/>
  </linearGradient>
 </defs>
 <g id="Camada_x0020_1">
  <metadata id="CorelCorpID_0Corel-Layer"/>
  <g id="_1796542543136">
   <path class="fil0" d="M5811.16 4733.8c248.96,0 450.77,-73.54 450.77,-164.25 0,-90.71 -201.82,-164.25 -450.77,-164.25 -248.96,0 -450.79,73.54 -450.79,164.25 0,90.71 201.83,164.25 450.79,164.25z"/>
   <path class="fil0" d="M5361 4573.2c0,22.14 201.54,40.05 450.16,40.05 248.65,0 450.23,-17.91 450.23,-40.05l111.23 -704.34 -1122.97 0 111.35 704.34z"/>
   <path class="fil1" d="M5308.13 4238.77c5.05,4.3 91.67,112.81 257.65,23.62 101.11,-54.35 216.9,53.68 330.91,69.26 107.91,14.73 209.16,-51.62 291.87,18.09 14.04,11.82 57.51,55.07 93.4,93.1l90.68 -573.99 -1122.97 0 58.47 369.91z"/>
   <path class="fil2" d="M5268.53 3965.27c0,-46.06 243.02,-83.5 542.67,-83.5 299.66,0 542.5,37.43 542.5,83.5l105.48 -206.11 -1296.14 0 105.48 206.11z"/>
   <path class="fil3" d="M5811.16 4097.72c301.01,0 545.02,-61.41 545.02,-137.16 0,-75.75 -244.01,-137.16 -545.02,-137.16 -301.02,0 -545.03,61.41 -545.03,137.16 0,75.75 244.01,137.16 545.03,137.16z"/>
   <path class="fil4" d="M5811.16 3913.03c357.93,0 648.08,-68.9 648.08,-153.9 0,-85 -290.15,-153.93 -648.08,-153.93 -357.91,0 -648.1,68.93 -648.1,153.93 0,85 290.19,153.9 648.1,153.9z"/>
   <path class="fil5" d="M5811.16 3891.47c334.83,0 606.22,-59.28 606.22,-132.35 0,-73.09 -271.39,-132.35 -606.22,-132.35 -334.81,0 -606.24,59.25 -606.24,132.35 0,73.07 271.43,132.35 606.24,132.35z"/>
   <path class="fil6" d="M5564.94 2697.02c55.66,230.5 86.21,397.61 134.36,1035.58l44.46 -21.81c0,0 -118.27,-919.71 -170.65,-1020.44 -52.47,-100.74 -9.07,3.11 -8.17,6.67z"/>
   <path class="fil7" d="M5163.38 1983.97c0,0 414.93,365.79 19.41,142.66 0,0 32.13,430.97 390.14,573.89 0,0 233.29,-736.13 -83.72,-1526.06 -0.03,0 -491.95,214.94 -325.84,809.5z"/>
   <path class="fil6" d="M5732.75 2072.65c123.03,-604.98 -231.48,-908.26 -231.48,-908.26 -259.46,810.65 71.66,1536.14 71.66,1536.14 200.18,-120.48 158.83,-509.39 158.83,-509.39 -378.46,250.95 0.99,-118.49 0.99,-118.49z"/>
   <path class="fil6" d="M5396.48 2840.13c117.93,-232.91 -93.84,-454.53 -107.77,-288.61 -13.97,165.89 -246.1,203.99 -131.65,111.22 114.44,-92.77 53.32,-170.21 53.32,-170.21 -324.74,-195.22 -812.85,12.38 -812.85,12.38 0,0 564.27,-8.79 877.43,392.89 211.85,271.68 367.15,634.16 445.59,840.4 20.44,5.01 40.59,10.95 60.13,18.4 -143,-452.74 -493.34,-701.05 -384.21,-916.46z"/>
   <path class="fil6" d="M5740.97 3534.9c-15.81,56.3 -49.92,121.58 -75.78,192.91 8.88,1.18 17.82,2.17 26.6,3.8 30.98,-84.3 73.8,-204.16 83.86,-249.76 16.25,-73.43 623.61,-124.27 -167.16,-934.57 59.98,346.53 262.66,523.17 132.48,987.62z"/>
   <path class="fil7" d="M5381.78 3382.67c0,0 111.93,-138.28 -35.55,-412.68 0,0 -46.87,335.77 -42.37,-44.77 0,0 -69.42,-115.25 -160.08,-129.52 -90.74,-14.29 40.72,202.29 -31.16,191.7 -71.87,-10.58 -4.16,-121.71 -34.48,-222.64 -30.29,-100.92 -426.73,4.58 -426.73,4.58 0,0 167.72,384.8 584.71,556.56 236.53,97.42 381.15,273.06 462.05,406.91 12.2,2.4 24.24,5.35 36.18,8.62 -73.47,-116.46 -192.7,-269.8 -352.56,-358.77z"/>
   <path class="fil6" d="M5381.78 3382.67c0,0 -4.01,-298.25 -288.38,-362.85 -284.38,-64.59 -442,-250.47 -442,-250.47 0,0 167.72,384.8 584.71,556.56 236.53,97.42 381.15,273.06 462.05,406.91 13.05,2.58 25.9,5.68 38.61,9.25 -70.52,-112.29 -187.1,-260.53 -355,-359.4z"/>
   <path class="fil7" d="M6411.5 1865.93c-67.36,-82.21 -66.58,-166.62 -66.58,-166.62 -51.84,70.81 -196.75,185.07 -196.75,185.07 244.35,625.8 -71.3,88.86 -71.3,88.86 -340.7,463.57 -90.67,637.71 -146.86,1017.92 -46.16,312.48 -227.62,630.35 -290.84,733.78 21.18,1.62 42.04,4.53 62.52,8.73 62.34,-145.76 223.08,-539.4 243.68,-766.17 25.61,-282.11 130.98,-128.86 304.18,-161.59 173.17,-32.71 169.23,-181.42 169.23,-181.42 -95.65,-34.79 -219.56,18.52 -219.56,18.52 0,0 2.06,-56.2 75.31,-48.81 73.18,7.35 87.8,-49.94 87.8,-49.94 0,0 11.39,-12.1 121.67,-34.63 110.27,-22.53 158.27,-264.66 158.27,-264.66 -113.7,-54.18 -274.82,33.69 -274.82,33.69 60.35,-68.15 234.36,-166.52 234.36,-166.52 330.28,-222.39 149.56,-496.37 149.56,-496.37 -378.06,-51.45 -339.89,250.15 -339.89,250.15z"/>
   <path class="fil6" d="M6411.5 1865.93c-67.36,-82.21 -66.62,-166.57 -66.62,-166.57 -51.83,70.74 -196.75,185.04 -196.75,185.04 244.39,625.79 -71.26,88.88 -71.26,88.88 -55.52,75.57 -95.39,143.36 -123.38,205.7 0,0.08 0,0.08 0,0.18 -99.82,221.94 -49.85,373.59 -25.54,551.96 10.72,78.73 16.47,162.63 1.99,260.11 -46.13,312.44 -227.58,630.33 -290.77,733.75 21.15,1.62 42,4.53 62.48,8.73 62.34,-145.8 223.1,-539.4 243.72,-766.18 25.61,-282.17 130.95,-128.95 304.18,-161.59 173.17,-32.77 -204.37,-98.17 -204.37,-98.17 -95.72,-34.85 404.95,-638.68 404.95,-638.68 330.2,-222.39 301.25,-453.28 301.25,-453.28 -378.03,-51.47 -339.89,250.13 -339.89,250.13z"/>
   <path class="fil7" d="M5953.49 2179.12c-99.82,221.93 -49.85,373.59 -25.54,551.96 0,0 86.7,-87.02 75.27,-221.09 -11.49,-134.16 -90.49,-134.13 -49.73,-330.86z"/>
   <path class="fil7" d="M6295.92 2598.24c-9.62,104.94 78.8,200.4 10.43,225.07 -68.35,24.65 17.46,-213.7 -68.61,-181.72 -86.07,32.01 -131.2,158.75 -131.2,158.75 80.07,372.04 -32.6,52.29 -32.6,52.29 -90.05,298.2 47.08,411.51 47.08,411.51 -173.79,148.74 -265.28,383.28 -304.03,508.15 9.87,4.64 19.37,9.69 28.84,14.96 31.81,-135.55 129.07,-421.45 406.73,-607.66 374.59,-251.14 462.5,-661.6 462.5,-661.6 0,0 -409.49,-24.68 -419.14,80.27z"/>
   <path class="fil6" d="M6331.58 2851.27c-265.9,119.79 -210.61,412.88 -210.61,412.88 -181.82,163.43 -269.06,387.07 -305.28,507.58 10.28,4.79 20.26,10.03 30.11,15.51 31.79,-135.55 129.06,-421.46 406.72,-607.67 374.59,-251.14 462.5,-661.6 462.5,-661.6 0,0 -117.53,213.52 -383.43,333.3z"/>
   <path class="fil6" d="M6426.52 3092.31c0,0 -51.29,36.37 2.03,113.76 53.35,77.31 -81.87,12.25 -60.57,-91.74 21.33,-104.01 -148.11,-6.5 -117.82,157.23 28.74,155.28 -244.35,244.83 -412.58,511.11 9.02,4.75 18.05,9.58 26.78,14.91 74.88,-102.02 251.02,-326.23 449.76,-468.89 263.87,-189.47 607.52,-82.59 607.52,-82.59 0,0 -261.27,-214.84 -495.11,-153.79z"/>
   <path class="fil8" d="M3020.29 8557.3c-4.43,2.03 -85.92,53.12 -85.92,53.12 4.08,-2.6 8.38,-4.82 12.77,-6.88 108.88,-48.78 265.36,86.46 191.81,202.97 -1.91,2.98 -4.5,5.56 -7.02,8.17 -2.81,2.95 -5.78,5.6 -8.88,8.1 -3.09,2.55 -6.32,4.83 -9.69,6.92 0,0 0,0 0,0.04 0,0 85.33,-53.61 91.06,-59.46 10.58,-11.75 23.45,-30.33 26.24,-52.62 16.07,-92.03 -96.63,-207.79 -210.36,-160.38z"/>
   <path class="fil0" d="M2997.73 8592.85c-31.85,0 -61.42,11.06 -82.12,33.35 -43.92,47.53 -30.32,127.74 29.61,179.32 31.75,27.27 70.27,41.12 105.94,41.12 31.07,0 60.17,-10.54 80.84,-31.9 44.64,-46.2 33.2,-126.34 -26.26,-179 -32.07,-28.41 -71.45,-42.89 -108,-42.89z"/>
   <path class="fil9" d="M2995.94 8617.02c-25.44,0 -47.53,8.73 -62.22,24.54 -34.58,37.29 -21.46,102.91 28.59,146.2 26.36,22.7 59.35,35.66 90.6,35.66l0.06 0c24.97,0 46.77,-8.4 61.47,-23.66 35.06,-36.36 23.51,-101.75 -26.42,-145.78 -26.51,-23.44 -60.1,-36.96 -92.07,-36.96z"/>
   <path class="fil5" d="M3101.28 8771.95c-29.33,0 -60.17,-12.24 -84.75,-33.57 -39.62,-34.59 -54.1,-84.15 -37.7,-119.84 -18.13,3.05 -33.84,10.9 -45.12,23.02 -34.58,37.29 -21.46,102.91 28.59,146.2 26.36,22.7 59.35,35.66 90.6,35.66l0.06 0c24.97,0 46.77,-8.4 61.47,-23.66 9.07,-9.43 14.97,-20.73 17.91,-33.16 -9.41,3.43 -19.87,5.35 -31.03,5.35l-0.03 0z"/>
   <path class="fil5" d="M3134.14 8556.6c-342.27,-213.07 -1470.76,-214.06 -1647.21,-178.58 0,0 441.74,77.44 489.67,127.4 0,0 -749.03,296.73 -765.58,317.44 -16.49,20.6 5.43,53.35 5.43,53.35 0,0 415.49,-145.78 883.89,-71.91l306.19 -169.55c0,0 486.7,-88.31 625.38,-54.6 137.73,33.52 124.12,-9.89 102.23,-23.55z"/>
   <path class="fil8" d="M1929.79 9270.81c-4.43,1.99 -84.4,52.02 -84.4,52.02 3.98,-2.58 8.24,-4.75 12.63,-6.78 109.05,-47.71 288.24,84.57 223.68,198.38 -1.64,2.91 -4.07,5.44 -6.41,7.99 -2.66,2.83 -5.47,5.49 -8.44,7.92 -3.01,2.42 -6.13,4.68 -9.46,6.77 0,0 83.75,-52.32 89.08,-58.05 9.86,-11.5 21.31,-29.63 21.81,-51.4 6.85,-90.01 -124.19,-203.24 -238.5,-156.85z"/>
   <path class="fil0" d="M2028.14 9347.53c-36.78,-27.74 -79.72,-41.93 -118.14,-41.93 -33.49,0 -63.35,10.79 -82.56,32.64 -40.88,46.43 -17.73,124.8 50.84,175.24 36.3,26.64 78.27,40.08 115.68,40.08 32.61,0 62,-10.24 81.34,-31.1 41.83,-45.13 21.04,-123.46 -47.15,-174.93z"/>
   <path class="fil9" d="M2011.63 9365.39c-30.47,-22.92 -67.25,-36.14 -100.8,-36.14 -26.74,0 -48.98,8.58 -62.62,24.05 -32.24,36.4 -11.2,100.58 46.16,142.85 30.11,22.14 66.17,34.85 98.99,34.85l0.07 0c26.19,0 48.15,-8.17 61.93,-23.06 32.79,-35.63 13.49,-99.48 -43.73,-142.55z"/>
   <path class="fil5" d="M2038.39 9480.75c-30.75,0 -64.46,-11.98 -92.62,-32.86 -45.44,-33.74 -66.08,-82.27 -52.8,-117.17 -18.74,3.02 -34.34,10.69 -44.84,22.59 -32.22,36.4 -11.18,100.58 46.16,142.85 30.12,22.14 66.17,34.85 98.99,34.85l0.07 0c26.19,0 48.15,-8.17 61.94,-23.06 8.49,-9.22 13.42,-20.34 15.16,-32.39 -9.55,3.36 -20.29,5.24 -32.01,5.24l-0.06 0 0 -0.04z"/>
   <path class="fil8" d="M1458.78 8354.21c-3.98,2.03 -75.49,52.47 -75.49,52.47 3.55,-2.58 7.37,-4.75 11.35,-6.78 98.4,-48.15 269.69,85.4 215.37,200.58 -1.42,2.98 -3.51,5.49 -5.58,8.1 -2.31,2.88 -4.78,5.57 -7.44,7.99 -2.62,2.51 -5.43,4.76 -8.4,6.89 0,0 74.92,-53.01 79.6,-58.81 8.56,-11.6 18.28,-29.91 17.75,-51.98 2.09,-90.97 -123.93,-205.3 -227.16,-158.47z"/>
   <path class="fil0" d="M1552.92 8431.66c-35.18,-28.05 -75.42,-42.37 -110.85,-42.37 -30.87,0.04 -57.92,10.9 -74.67,32.95 -35.68,46.93 -10.83,126.22 54.66,177.25 34.77,26.96 74.11,40.59 108.67,40.59 30.12,0 56.79,-10.42 73.69,-31.54 36.55,-45.67 13.74,-124.9 -51.51,-176.88z"/>
   <path class="fil9" d="M1538.48 8449.71c-29.13,-23.17 -63.64,-36.51 -94.61,-36.51 -24.61,0 -44.77,8.62 -56.69,24.29 -28.12,36.8 -5.88,101.65 48.95,144.46 28.83,22.45 62.69,35.26 92.99,35.26l0.07 0c24.2,0 44.1,-8.33 56.12,-23.39 28.71,-36 7.92,-100.62 -46.83,-144.1z"/>
   <path class="fil5" d="M1568.46 8566.36c-28.37,0 -60.06,-12.11 -86.99,-33.24 -43.41,-34.14 -64.64,-83.19 -53.96,-118.45 -17.13,3.06 -31.19,10.83 -40.33,22.81 -28.12,36.8 -5.88,101.65 48.95,144.46 28.83,22.45 62.69,35.26 92.99,35.26l0.07 0c24.2,0 44.1,-8.33 56.12,-23.39 7.42,-9.29 11.46,-20.53 12.5,-32.75 -8.62,3.38 -18.48,5.31 -29.31,5.31l-0.04 0z"/>
   <path class="fil8" d="M1036.49 9021.76c3.5,23.69 16.56,43.32 27.2,55.85 5.72,6.22 90,63.04 90,63.04 -3.29,-2.21 -6.52,-4.68 -9.61,-7.34 -3.09,-2.65 -6.04,-5.53 -8.84,-8.58 -2.53,-2.77 -4.85,-5.71 -7.05,-8.66 -78.37,-127.37 71.59,-267.6 178.59,-215.65 4.32,2.21 8.55,4.57 12.55,7.32 0,0 -80.52,-54.38 -84.92,-56.59 -111.62,-50.58 -216.66,72.7 -197.92,170.6z"/>
   <path class="fil0" d="M1257.51 8888.97c-35.43,0 -73.02,15.44 -103.03,45.61 -55.71,55.97 -63.96,141.12 -19.24,190.12 20.67,22.7 49.1,33.82 79.12,33.82 34.44,0 71.14,-14.66 100.89,-43.56 56.17,-54.78 66.76,-139.96 22.78,-190.47 -20.71,-23.77 -49.7,-35.52 -80.52,-35.52z"/>
   <path class="fil9" d="M1260.04 8914.72c-30.94,0 -62.96,14.34 -87.85,39.31 -46.73,46.8 -55.67,116.25 -20.53,154.82 14.72,16.18 36.08,25.09 60.16,25.09l0.07 0c30.16,0 61.58,-13.77 86.25,-37.81 46.96,-45.94 57.51,-115.65 22.88,-155.32 -14.73,-16.77 -36.4,-26.1 -60.98,-26.1z"/>
   <path class="fil5" d="M1276.63 8916.34c17,37.95 4.64,90.67 -32.49,127.36 -23.03,22.7 -52.39,35.68 -80.72,35.68l-0.07 0c-10.81,0 -20.94,-2.03 -30.18,-5.68 3.29,13.12 9.39,25.2 18.45,35.15 14.73,16.18 36.09,25.09 60.17,25.09l0.06 0c30.18,0 61.59,-13.77 86.27,-37.81 46.96,-45.94 57.51,-115.65 22.88,-155.32 -11.25,-12.87 -26.74,-21.26 -44.37,-24.47z"/>
   <path class="fil10" d="M2593.25 8525.42c-11.21,-4.37 -7.23,-20.92 5.03,-20.6 144.43,3.54 354.87,34.9 430.26,40.83 35.43,2.8 117.26,55.41 119.23,32.57 4.68,-53.64 -66.23,-98.08 -99.41,-103.46 -709.28,-116.16 -1187.8,-167.9 -1414.19,-159.01 -68.67,2.69 -147.25,62.27 -147.25,62.27 0,0 840.85,93.2 448.81,127.43 -457.38,39.98 -766.98,299.7 -766.98,299.7l4.36 41.3 43.32 29.76 -4.23 -41.51c0,0 305.02,-119.12 438.05,-153.83 133.91,-34.99 494.12,-78.18 434.79,1.25 -58.46,78.26 -109.55,614.34 -109.55,614.34 43.22,-3.51 89.73,18.53 89.73,18.53 -7.97,-158.22 92.32,-330.86 166.39,-495.04 6.7,1.66 13.79,3.29 21.74,4.76 202.64,38.2 1080.5,113.32 1059.29,307.64l25.44 -12.05c0,0 38.67,-100.76 3.75,-143.5 -31.15,-38.21 -496.27,-353.49 -748.58,-451.39z"/>
   <path class="fil11" d="M1504.07 8691.59c-41.65,-0.11 -74.35,-13.23 -98.56,-33.94 -149.77,74.54 -236.73,147.45 -236.73,147.45l4.36 41.3 43.32 29.8 -4.23 -41.55c0,0 234.71,-91.6 382.15,-137.58 -29.95,-3.23 -60,-5.44 -90.31,-5.49z"/>
   <path class="fil12" d="M2593.25 8525.42c-11.21,-4.37 -7.23,-20.92 5.03,-20.6 144.43,3.54 354.87,34.9 430.26,40.83 35.43,2.8 117.26,55.41 119.23,32.57 4.68,-53.64 -66.23,-98.08 -99.41,-103.46 -709.28,-116.16 -1187.8,-167.9 -1414.19,-159.01 -52.55,2.06 -110.79,37.4 -135.27,53.86 5.33,-0.47 10.76,-0.77 16.43,-0.74 78.45,0.19 151.76,14.77 228.99,25.98 76.21,11.04 153.07,7.66 229.31,17.13 132.9,16.5 227,87.76 343.02,146.74 96.7,49.11 184.76,106 283.76,149.89 96.5,42.76 167.88,102.27 202.86,199.4 266.84,48.4 520.89,118.82 509.39,224.42l25.44 -12.09c0,0 38.67,-100.78 3.76,-143.47 -31.16,-38.28 -496.25,-353.56 -748.59,-451.46z"/>
   <path class="fil13" d="M2108.44 8814.73c-19.4,-10.58 -38.36,-23.99 -57.61,-36.89 -42.78,177.74 -75.32,518.58 -75.32,518.58 43.22,-3.5 89.73,18.53 89.73,18.53 -7.14,-141.95 72.87,-295.56 142.86,-444.26 -33.02,-18.87 -66.03,-37.7 -99.66,-55.97z"/>
   <path class="fil5" d="M2143.74 8546.98c0.03,0.22 0,0.45 0,0.67 0.38,39.27 73.33,70.92 162.98,70.92 89.64,0 163.01,-31.65 163.9,-70.92 0,-0.07 0,-0.11 0,-0.15l3.47 -157.69 -331.81 0 1.46 157.17z"/>
   <path class="fil8" d="M2308.68 8315.71c-92.27,0 -166.74,33.31 -166.41,74.1 0.39,40.49 74.44,73.11 165.42,73.11 91,0 165.47,-32.57 166.39,-73.11 0.92,-40.79 -73.15,-74.1 -165.4,-74.1z"/>
   <path class="fil8" d="M3194.62 9084.17c-4.78,2.06 -92.94,54 -92.94,54 4.43,-2.65 9.04,-4.9 13.81,-6.96 117.52,-49.63 286.02,84.23 201.57,205.95 -2.38,2.88 -4.87,5.64 -7.62,8.3 -3.06,2.94 -6.29,5.67 -9.68,8.22 -3.34,2.53 -6.85,4.86 -10.49,7 0,0 92.3,-54.28 98.47,-60.21 11.56,-11.93 25.68,-30.76 29.1,-53.35 18.95,-93.51 -99.54,-211.15 -222.23,-162.95z"/>
   <path class="fil0" d="M3169.82 9120.31c-34.1,0.04 -65.98,11.2 -88.48,33.89 -47.85,48.24 -34.63,129.66 28.53,181.93 33.49,27.64 74.37,41.64 112.52,41.64 33.28,-0.03 64.53,-10.64 87.02,-32.31 48.64,-46.83 37.89,-128.14 -24.73,-181.61 -33.81,-28.81 -75.68,-43.54 -114.86,-43.54z"/>
   <path class="fil9" d="M3265.4 9182.43c-28,-23.8 -63.71,-37.54 -97.92,-37.54 -27.21,0 -51.04,8.88 -67.02,24.94 -37.67,37.83 -24.75,104.45 28.06,148.3 27.77,23.02 62.79,36.18 96.21,36.18l0.1 0c26.67,0 50.14,-8.51 66.17,-23.99 38.17,-36.87 27.02,-103.2 -25.59,-147.89z"/>
   <path class="fil5" d="M3277.38 9302.17c-31.35,0 -64.11,-12.42 -90.03,-34.05 -41.73,-35.08 -56.37,-85.43 -38.2,-121.69 -19.5,3.09 -36.44,11.08 -48.7,23.39 -37.67,37.83 -24.75,104.45 28.06,148.3 27.77,23.02 62.79,36.18 96.21,36.18l0.1 0c26.67,0 50.14,-8.51 66.17,-23.99 9.89,-9.54 16.39,-21.03 19.77,-33.56 -10.14,3.47 -21.36,5.42 -33.34,5.42l-0.06 0z"/>
   <path class="fil14" d="M2211.19 8369.39c0.1,19.02 8.31,36.15 20.96,43.11 30.48,16.84 90.71,38.8 156.66,-0.11 12.2,-7.19 20.04,-24.17 20.32,-42.51l13.74 -988.78 -216.38 0 4.71 988.29z"/>
   <path class="fil15" d="M2208.25 7757.01c0.35,69.12 64.71,238.79 204.78,327.87l9.8 -703.75 -216.38 0 1.8 375.88z"/>
   <path class="fil5" d="M3286.25 8993.27c-307.07,-160.38 -653.54,-242.47 -936.78,-287.26 -22.75,-3.58 -48,2.8 -60.92,21.18 -263.47,375.48 -223.28,587.77 -223.28,587.77l269.41 -421.09c12.25,-21.78 37.25,-34.81 63.14,-32.13 218.75,22.66 689.9,127.51 807.39,170.25 16.68,6.04 26.54,21.44 24.83,38.5l-2.55 25.68c47.26,-4.21 85.21,36.18 85.21,36.18l8.16 -74.61c2.91,-26.85 -10.3,-51.76 -34.6,-64.47z"/>
   <path class="fil6" d="M3725.84 5900.41c-29.28,-248.59 -232.62,-440.43 -482.54,-455.11l-1396.75 -82.16c-223.53,-13.19 -430.05,119.23 -511.42,327.84l-365.55 937.24c-126.2,323.66 96.68,677.03 443.1,702.61l1879.31 138.6c323.6,23.84 588.77,-253.15 550.83,-575.39l-116.99 -993.64z"/>
   <path class="fil0" d="M267.39 3081.79c-31.29,28.73 -33.38,77.35 -4.65,108.63 658.72,717.44 842.31,3273.41 844.08,3299.16 2.77,40.54 36.55,71.59 76.59,71.59 1.8,0 3.56,-0.07 5.38,-0.18 42.37,-2.95 74.32,-39.6 71.41,-81.94 -7.39,-107.29 -189.2,-2635.62 -884.17,-3392.58 -28.76,-31.25 -77.35,-33.36 -108.63,-4.68z"/>
   <path class="fil16" d="M-0 3412.12c0,0 527.91,1349.09 586.21,1875.83l117.64 0 100.14 -2175.89 -117.64 0 -686.35 300.06z"/>
   <path class="fil5" d="M117.61 3412.11c0,0 527.91,1349.11 586.2,1875.84l635.79 -745.82c0,0 -30.62,-693.91 -535.65,-1430.1l-686.33 300.08z"/>
   <path class="fil17" d="M823.22 3920.03c-21.79,52.64 -37.03,107.43 -57.37,160.49 -5.03,13.12 -8.81,22.21 -11.7,28.63 0.67,6 0.22,18.9 -2.72,44.51 -14.47,126.22 -38.42,265.3 -119.85,367.96 -27.42,34.52 -58.17,65.46 -91.35,92.14 80.32,261.04 145.23,508.4 163.59,674.19l635.77 -745.82c0,0 -18.2,-474.91 -253.34,-1027.91 -100.18,126.3 -198.73,250.81 -263.03,405.81z"/>
   <path class="fil16" d="M3725.84 5810.66c-29.28,-248.59 -232.62,-440.4 -482.54,-455.11l-1396.75 -82.2c-223.53,-13.12 -430.05,119.27 -511.42,327.84l-365.55 937.31c-126.2,323.6 96.68,677.05 443.1,702.61l1879.31 138.57c323.6,23.88 588.77,-253.12 550.83,-575.35l-116.99 -993.68z"/>
   <path class="fil0" d="M3725.84 5766.26c-29.28,-248.58 -232.62,-440.39 -482.54,-455.09l-1396.75 -82.16c-223.53,-13.16 -430.05,119.26 -511.42,327.83l-365.55 937.28c-126.2,323.64 96.68,677.07 443.1,702.61l1879.31 138.6c323.6,23.84 588.77,-253.11 550.83,-575.35l-116.99 -993.72z"/>
   <path class="fil18" d="M3599.19 5760.48c-26.47,-225.05 -210.56,-398.65 -436.74,-411.95l-1264.36 -74.39c-202.32,-11.91 -389.27,107.95 -462.92,296.78l-330.89 848.41c-114.26,292.95 87.53,612.86 401.08,635.99l1701.14 125.42c292.95,21.58 532.93,-229.14 498.57,-520.83l-105.87 -899.43z"/>
   <path class="fil19" d="M3737.19 5862.67c-119.26,127.24 -305.27,775.02 -1620.94,1385.93l1175.75 86.7c323.6,23.87 588.77,-253.12 550.83,-575.36l-105.64 -897.26z"/>
   <path class="fil6" d="M4681.62 9135.08c-192.14,-85.81 -355.07,-291.4 -421.39,-463.17 -66.28,-171.8 125.54,-596.86 125.54,-596.86l-370.65 -333.51c0,0 -336.57,798.45 -405.71,845.82 -69.1,47.42 -196.69,175.26 -147,304.07 49.74,128.85 301.9,183.7 367.26,186.14 65.37,2.44 92.97,21 252.72,156.44 159.75,135.41 630.51,153.97 674.32,147.79 43.77,-6.2 117.06,-160.91 -75.09,-246.71z"/>
   <path class="fil20" d="M3609.44 8587.29c-69.12,47.37 -196.79,175.37 -146.9,304.18 35.27,91.85 173.82,145.94 273.69,170.63 -43.84,-26.68 -79.67,-60.02 -95.35,-100.62 -49.55,-128.7 78.07,-256.7 147.23,-304.07 38.87,-26.71 79.9,-107.43 180.79,-333.77 295.7,40.76 416.77,-248.76 416.77,-248.76l-370.57 -333.41c0.03,0 -336.53,798.45 -405.67,845.83z"/>
   <path class="fil16" d="M3466.96 8755.74c-16.58,47.82 -11.68,46.41 -14.57,58.68 0,267.71 316.67,225.05 467.54,291.04 157.1,137.68 326.59,238.68 527.32,253.08 110.64,9.47 292.43,53.61 341.1,-2.8 -477.72,-47.05 -624.37,-155.34 -863.88,-365.79 -165.32,-58.21 -364.45,-79.81 -457.51,-234.21z"/>
   <path class="fil21" d="M4794.51 5956.6c0,0 -73.11,197 -270.51,528.67 -354.26,595.39 -683.49,1642.68 -683.49,1642.68 229.5,223.43 571.85,199.19 571.85,199.19 214.35,-504.22 1121.26,-1416.69 1121.26,-2030.92 0.03,-212.89 -739.11,-339.62 -739.11,-339.62z"/>
   <path class="fil21" d="M5020.21 5814.09c-1100.17,-467.29 -3029.84,-420.9 -3205.6,142.36 -146.81,470.49 155.84,580.52 1190.36,602.7 1034.52,22.21 1449.79,84.96 1973.01,131.64 363.52,32.5 1021.85,-460.62 42.22,-876.69z"/>
   <path class="fil22" d="M4485.34 5858.37c-588.58,-204.34 -1417.37,-466.04 -2067.37,-367.29 -606.04,92.07 -1022.48,448.49 -1082.83,747.41 -104.4,517.43 188.35,581.55 1239.25,618.09 1050.88,36.6 1451.58,-134.59 1976.87,-134.59 365.01,0 946.83,-512.02 -65.92,-863.62z"/>
   <path class="fil6" d="M5839.17 9089.21c-207.92,32.39 -456.39,-51.62 -605.46,-159.79 -149,-108.17 -219.07,-569.2 -219.07,-569.2l-492.45 -78.48c0,0 151.51,853.12 119.27,930.49 -32.24,77.3 -69.89,254.01 41.85,335.14 111.79,81.09 353.27,-9.91 409.44,-43.43 56.17,-33.5 89.46,-32.91 297.14,-6.04 207.7,26.89 612.93,-213.45 646.31,-242.48 33.46,-28.95 10.92,-198.62 -197.03,-166.2z"/>
   <path class="fil23" d="M5014.53 8360.11l-492.27 -78.41c0,0 151.51,853.13 119.23,930.5 -32.26,77.3 -69.85,254.11 42.01,335.13 79.58,57.93 225.26,28.05 322.52,-5.56 -51.31,1.48 -99.55,-7.07 -134.74,-32.57 -111.56,-81.1 -74.01,-257.91 -41.71,-335.25 18.09,-43.61 8.7,-133.67 -29.66,-378.46 270.33,-126.51 214.62,-435.37 214.62,-435.37z"/>
   <path class="fil16" d="M5124.76 9378.91c-167.59,40.13 -340.68,127.56 -501.43,56.75 -3.27,-1.63 -6.74,-2.88 -9.83,-4.65 76.92,284.62 395.18,89.39 560.45,47.75 198.74,21.82 389.25,31.69 560.46,-61.59 107.63,-54.39 304.04,-125.31 314.28,-200.73 -426.57,220.14 -608.44,208.95 -923.93,162.48z"/>
   <path class="fil22" d="M4206.32 6359.89c0,0 45.69,205.11 60.32,590.79 26.26,692.34 319.21,1750.38 319.21,1750.38 314.03,62.79 588.2,-143.69 588.2,-143.69 -94.13,-539.72 -119.8,-2277.39 -119.8,-2277.39l-847.94 79.92z"/>
   <path class="fil24" d="M4521.38 7578.39c-21.89,-115.84 -49.18,-233.29 -81.46,-346.81 -29.03,-101.95 -78.4,-196.86 -105.55,-299.28 -41.01,-154.82 -29.88,-305.92 -22.34,-459.63 -17.8,-0.92 -35.33,-6.04 -52.61,-11.98 0.85,-6.11 -223.39,-26.01 -333.22,-31.5 -257.39,-12.83 -514.89,-26.5 -772.6,-26.5 -646.15,0 -311.77,-524.29 -438.67,-543.25 -149.26,-22.34 -1015.3,460.65 -1155.75,403.69 -72.2,-29.26 -136.84,-67.05 -193.73,-111.3 -14.02,28 -24.3,56.88 -30.3,86.66 -104.4,517.43 188.35,581.55 1239.25,618.09 844.96,29.48 1266.11,-75.89 1676.96,-117.78 7.88,69.56 12.09,127.99 15.25,211.85 26.28,692.34 319.18,1750.39 319.18,1750.39 99.26,19.86 194.38,12.74 278.28,-6.13 -82.13,-150.95 -199.1,-282.14 -259.09,-444.63 -79.21,-214.53 -41.71,-450.37 -83.59,-671.88z"/>
   <path class="fil6" d="M2920.77 3218.52c-91.8,100 -1082.23,741.07 -1195.69,1344.69 -113.48,603.6 -585.49,635.98 -517.39,1462.03 68.07,826 249.6,653.54 249.6,653.54 0,0 866.89,-381.23 1225.4,-816.91 358.58,-435.71 512.87,-403.96 617.27,-603.65 104.4,-199.67 330.89,-933.13 268.81,-1269.3 -69.93,-378.68 -297.72,-1152.01 -647.98,-770.4z"/>
   <path class="fil25" d="M2987.4 5057.7c-92.45,-141.41 -128.35,-290.3 -149.74,-454.77 -19.24,-147.82 -1.71,-296.93 -14.76,-445.08 -0.22,-0.88 -0.38,-1.73 -0.63,-2.6 -34.51,-137.29 -29.65,-280.27 38.89,-407.38 60.06,-111.39 140.45,-540.27 179.44,-618.27 -39.94,5.47 -1202.11,830 -1315.58,1433.62 -113.46,603.63 -585.49,635.98 -517.39,1461.99 68.07,826.05 249.6,653.58 249.6,653.58 0,0 337.41,-148.37 678.29,-365.79 -61.22,-35.89 -567.34,-233.82 -571.65,-356.36 -4.51,-129.1 162.86,-86.03 256.59,-178.24 97.06,-95.61 -27.81,-668.9 112.57,-667.54 117.61,1.17 -47.01,794.17 457.07,729.88 99.12,-77.97 806.82,-442.54 861.99,-509.78 -102.5,-75.6 -192.27,-162.56 -264.69,-273.26z"/>
   <path class="fil26" d="M3406.61 2986.65c-40.56,125.73 -357.59,143.71 -357.59,143.71 10.21,390.94 439.3,730.83 439.3,730.83 -129.67,-625.29 283.88,-550.15 283.88,-550.15 0,0 -325.02,-450.12 -365.59,-324.39z"/>
   <path class="fil27" d="M3406.61 2986.65c-40.56,125.73 -357.59,143.71 -357.59,143.71 2.05,79.82 22.14,157.23 51.97,230.31 26.39,2.16 53.25,3.8 81.03,4.75 162.97,5.58 314.17,-65.73 481.7,-51.09 1.77,0.15 3.51,0.47 5.31,0.63 56.79,-12.25 103.2,-3.95 103.2,-3.95 0,0 -325.04,-450.08 -365.62,-324.35z"/>
   <path class="fil26" d="M4074.73 2701.79c55.55,-220.2 -132.86,-338.66 -132.86,-338.66 -495.57,-417.19 -871.68,202.88 -879.48,455.16 -7.81,252.28 368.36,244.37 368.36,244.37 6.45,68.61 13.15,202.19 252.42,354.54 239.26,152.29 313.32,-1.39 310.16,-85.57 -3.2,-84.15 126.96,-239.99 136.91,-353.55 9.94,-113.56 -111.12,-56.12 -55.52,-276.29z"/>
   <path class="fil28" d="M3941.87 2363.13c-495.57,-417.19 -871.68,202.88 -879.48,455.16 -7.81,252.28 368.36,244.37 368.36,244.37 6.45,68.61 13.15,202.19 252.42,354.54 87.55,55.7 152.87,70.38 200.51,62.59 -82.05,-38.55 -154.71,-95.96 -207.81,-171.45 -74.35,-105.64 29.03,-262.8 57.3,-391.02 49.14,-223.05 348.98,-195.98 314.31,-437.95 -42.36,-76.41 -105.62,-116.25 -105.62,-116.25z"/>
   <path class="fil16" d="M3044.15 2905.88c-41.33,70.09 -50.42,242.83 175.85,245.29 226.3,2.44 200.9,-186.33 162.86,-279.51 -38.04,-93.22 67.72,-200.47 151.26,-52.08 83.55,148.39 125.45,71.53 112.42,-37.79 -13.01,-109.3 101.86,-131.57 101.86,-131.57 -627.51,-397.41 -662.94,185.57 -704.24,255.65z"/>
   <path class="fil29" d="M3542.99 2067.68c-232.29,-113.11 -183.99,61.3 -435.11,131.08 -251.04,69.77 -193.03,189.11 -193.03,189.11 0,0 805.4,104.97 948.02,116.94 142.66,11.98 338.75,-161.59 174.64,-333.98 -164.07,-172.39 -262.28,9.96 -494.51,-103.14z"/>
   <path class="fil30" d="M3648.84 2418.16c-250.97,-127.05 -830.2,-195.62 -776.32,123.96 53.86,319.58 163.29,193.28 121.65,352.57 -41.68,159.32 313.76,-10.01 335.82,-202.79 22.06,-192.78 154.22,-75.75 393.83,-44.09 239.58,31.69 370.05,-178.59 372.75,-309.98 -0.04,-0.03 -196.72,207.35 -447.74,80.32z"/>
   <polygon class="fil31" points="5327.76,10160.82 10336.18,10160.82 10336.18,7122.08 5327.76,7102.82 "/>
   <polygon class="fil32" points="5193.4,9805.5 5327.76,10160.82 5327.76,7102.82 5194.43,6767.64 "/>
   <polygon class="fil33" points="5006.94,6880.86 10336.18,6880.86 10336.18,3724.13 4062.86,3724.13 "/>
   <path class="fil34" d="M5622.41 4140.47c-387.12,-144.14 -672.6,-115.89 -929.93,-416.34l-629.66 0 944.09 3156.69 1119.56 0c-145.53,-75.71 -283.04,-164.32 -408.27,-271.35 -237.72,-203.31 -319.92,-627.31 -30.02,-817.12 498.76,-326.59 832.41,-80.32 1152.37,-633.75 495.47,-857.13 -929.32,-910.59 -1218.14,-1018.13z"/>
   <polygon class="fil35" points="4061.72,3990.21 5006.94,7207.41 5006.94,6880.86 4062.82,3724.13 "/>
   <polygon class="fil36" points="5006.94,7207.41 10336.18,7189.1 10336.18,6882.48 5006.94,6880.86 "/>
   <path class="fil5" d="M5149.34 4021.24l554.89 1496.26c8.22,22.17 29.41,36.87 53.06,36.87l3131 0c56.75,0 108.07,-33.6 130.76,-85.58l-3851.21 -1597.44c-42,23.66 -32.17,112.93 -18.49,149.89z"/>
   <path class="fil0" d="M5202.35 3859.39c-39.35,0 -66.69,39.31 -53.01,76.23l554.89 1496.28c8.22,22.18 29.41,36.89 53.06,36.89l3261.76 0 -1817.02 -1609.4 -1999.67 0z"/>
   <path class="fil37" d="M5779.36 5414.84c-23.69,0 -44.84,-14.73 -53.06,-36.92l-554.87 -1496.21c-1.32,-3.61 -1.99,-7.26 -2.58,-10.88 -19.09,14.26 -28.7,39.95 -19.5,64.78l554.91 1496.26c8.22,22.18 29.4,36.92 53.06,36.92l3261.76 0 -60.9 -53.95 -3178.83 0z"/>
   <path class="fil38" d="M6129.12 4356.92c-13.55,-23.32 -38.53,-37.63 -65.46,-37.63l-755.86 0 235.18 634.13 801.72 0c58.51,0 94.94,-63.42 65.5,-113.92l-281.08 -482.58z"/>
   <path class="fil39" d="M6145.84 4330.73c-13.59,-23.32 -38.53,-37.65 -65.5,-37.65l-797.42 2.65 7.56 20.46 769.41 -2.62c27,0 51.94,14.33 65.5,37.61l281.12 482.55c15.83,27.27 12.16,57.96 -3.43,80.72 31.57,-21 45.35,-64.4 23.87,-101.21l-281.12 -482.51z"/>
   <polygon class="fil40" points="6666.9,3859.39 6459.94,5468.78 9019.02,5468.78 7201.98,3859.39 "/>
   <path class="fil16" d="M6249.87 3929.64c-2.33,-3.2 -11.84,-5.89 -21.22,-5.96l-119.42 -1.25c-9.39,-0.11 -15.21,2.4 -13.1,5.63l27.22 40.65c2.21,3.31 11.82,6.07 21.44,6.22l122.25 1.21c9.61,0.11 15.36,-2.53 12.89,-5.89l-30.06 -40.61z"/>
   <path class="fil16" d="M6296.79 3993.01c-2.51,-3.38 -12.34,-6.2 -21.99,-6.29l-122.83 -1.23c-9.66,-0.11 -15.62,2.55 -13.38,5.93l28.81 43.07c2.37,3.54 12.31,6.49 22.22,6.56l125.81 1.25c9.87,0.07 15.78,-2.69 13.16,-6.22l-31.81 -43.07z"/>
   <path class="fil16" d="M6346.47 4060.17c-2.66,-3.61 -12.83,-6.56 -22.77,-6.67l-126.46 -1.21c-9.98,-0.11 -16.1,2.73 -13.7,6.31l30.62 45.67c2.51,3.76 12.83,6.89 23.02,7l129.7 1.21c10.17,0.08 16.17,-2.87 13.41,-6.63l-33.82 -45.69z"/>
   <path class="fil16" d="M6524.82 4081.22c-2.94,-3.68 -13.44,-6.67 -23.42,-6.81l-106.85 -1c-9.98,-0.11 -15.92,2.77 -13.16,6.45l34.79 46.43c2.84,3.83 13.48,7 23.73,7.07l109.58 1.03c10.24,0.07 16.06,-2.95 12.96,-6.74l-37.63 -46.43z"/>
   <path class="fil16" d="M6583.52 4153.72c-3.16,-3.9 -14.04,-7.12 -24.36,-7.21l-110.08 -1c-10.32,-0.11 -16.36,2.95 -13.45,6.85l37.03 49.41c3.06,4.05 14.08,7.45 24.61,7.52l113.05 1.03c10.57,0.07 16.46,-3.13 13.19,-7.21l-39.98 -49.38z"/>
   <path class="fil16" d="M6646.01 4230.91c-3.36,-4.12 -14.71,-7.55 -25.32,-7.66l-113.63 -1c-10.61,-0.11 -16.72,3.17 -13.63,7.3l39.42 52.69c3.24,4.3 14.75,7.92 25.65,8.03l116.72 0.95c10.9,0.11 16.88,-3.34 13.37,-7.66l-42.58 -52.65z"/>
   <path class="fil16" d="M6712.59 4313.18c-3.58,-4.41 -15.33,-8.06 -26.3,-8.13l-117.35 -1c-10.99,-0.07 -17.21,3.4 -13.9,7.85l42.11 56.26c3.47,4.64 15.44,8.47 26.75,8.58l120.59 0.96c11.31,0.07 17.39,-3.61 13.67,-8.22l-45.58 -56.3z"/>
   <path class="fil16" d="M6783.76 4401.09c-3.79,-4.71 -16.1,-8.58 -27.45,-8.69l-121.25 -0.96c-11.35,-0.11 -17.73,3.65 -14.19,8.37l45.1 60.24c3.72,4.97 16.21,9.05 27.92,9.16l124.76 0.96c11.68,0.04 17.87,-3.9 13.86,-8.84l-48.75 -60.24z"/>
   <path class="fil16" d="M6860 4495.31c-4.14,-5.08 -16.95,-9.25 -28.67,-9.33l-125.52 -0.92c-11.75,-0.11 -18.2,3.94 -14.44,9l48.38 64.65c4.01,5.31 17.06,9.73 29.13,9.8l129.37 0.92c12.05,0.04 18.38,-4.21 14.04,-9.54l-52.28 -64.59z"/>
   <path class="fil16" d="M6941.83 4596.37c-4.41,-5.42 -17.8,-9.87 -30,-9.98l-130.05 -0.88c-12.2,-0.08 -18.76,4.23 -14.71,9.69l52.05 69.56c4.32,5.75 17.95,10.46 30.55,10.54l134.11 0.84c12.56,0.04 18.97,-4.53 14.29,-10.24l-56.26 -69.53z"/>
   <path class="fil16" d="M7029.89 4705.16c-4.72,-5.89 -18.8,-10.64 -31.4,-10.75l-134.95 -0.85c-12.64,-0.07 -19.34,4.61 -14.97,10.46l56.16 75.06c4.64,6.18 19.01,11.27 32.06,11.35l139.29 0.77c13.05,0.08 19.54,-4.9 14.52,-11.08l-60.71 -74.95z"/>
   <path class="fil16" d="M7124.97 4822.62c-5.11,-6.34 -19.89,-11.49 -33,-11.57l-140.23 -0.81c-13.16,-0.03 -19.97,5.01 -15.22,11.35l60.8 81.21c5.04,6.7 20.11,12.23 33.67,12.3l144.98 0.74c13.56,0.04 20.12,-5.31 14.71,-12.05l-65.7 -81.17z"/>
   <path class="fil16" d="M7227.92 4949.82c-5.57,-6.89 -21.11,-12.49 -34.79,-12.57l-145.94 -0.74c-13.67,-0.03 -20.55,5.46 -15.44,12.31l66.03 88.2c5.44,7.27 21.36,13.27 35.51,13.3l151.06 0.67c14.12,0.07 20.75,-5.78 14.89,-13.08l-71.33 -88.09z"/>
   <path class="fil16" d="M6718.48 4118.47c-3.29,-3.76 -14.15,-6.89 -24.31,-7l-108.28 -0.99c-10.14,-0.11 -15.85,2.87 -12.78,6.63l39.12 47.9c3.29,3.94 14.26,7.19 24.69,7.3l111.08 0.99c10.36,0.11 16,-3.02 12.49,-6.92l-42 -47.9z"/>
   <path class="fil16" d="M6655.77 4047.1c-3.13,-3.54 -13.6,-6.49 -23.39,-6.56l-105.05 -1.03c-9.87,-0.07 -15.43,2.69 -12.56,6.22l36.8 45.02c3.02,3.73 13.67,6.78 23.73,6.87l107.7 1.03c10.05,0.07 15.58,-2.8 12.38,-6.56l-39.6 -44.99z"/>
   <path class="fil16" d="M6555.37 3932.81c-2.84,-3.17 -12.64,-5.82 -21.96,-5.93l-99.93 -1.03c-9.36,-0.11 -14.8,2.4 -12.18,5.56l73.05 89.43c2.88,3.5 13.12,6.41 22.88,6.48l104.54 1.07c9.76,0.07 15.18,-2.66 12.16,-6.15l-78.55 -89.41z"/>
   <path class="fil16" d="M6707.09 3934.39c-3.02,-3.2 -13.01,-5.85 -22.32,-5.96l-99.73 -1.03c-9.36,-0.11 -14.64,2.4 -11.79,5.56l63.85 72.04c3.02,3.43 13.34,6.29 23.03,6.38l103.49 1.06c9.73,0.08 14.93,-2.65 11.68,-6.04l-68.21 -71.99z"/>
   <path class="fil16" d="M6784.16 4193.26c-3.54,-4.01 -14.84,-7.32 -25.27,-7.44l-111.62 -1c-10.43,-0.11 -16.29,3.06 -13.01,7.07l41.66 50.99c3.43,4.16 14.93,7.66 25.68,7.77l114.59 1c10.75,0.07 16.43,-3.24 12.74,-7.45l-44.77 -50.95z"/>
   <path class="fil16" d="M6854.1 4272.88c-3.76,-4.28 -15.51,-7.81 -26.26,-7.88l-115.22 -0.96c-10.75,-0.11 -16.68,3.27 -13.19,7.55l44.48 54.38c3.65,4.47 15.61,8.22 26.71,8.3l118.38 0.99c11.06,0.07 16.84,-3.5 12.89,-7.95l-47.79 -54.42z"/>
   <path class="fil16" d="M6928.78 4357.88c-4.01,-4.61 -16.28,-8.33 -27.4,-8.41l-119.05 -0.99c-11.15,-0.07 -17.17,3.5 -13.41,8.1l47.53 58.18c3.94,4.75 16.4,8.73 27.89,8.84l122.4 0.92c11.45,0.11 17.35,-3.72 13.12,-8.48l-51.08 -58.17z"/>
   <path class="fil16" d="M7008.63 4448.81c-4.28,-4.87 -17.1,-8.93 -28.59,-9l-123.1 -0.92c-11.49,-0.07 -17.69,3.79 -13.67,8.69l50.99 62.34c4.21,5.12 17.21,9.36 29.1,9.47l126.75 0.92c11.86,0.07 17.8,-4.01 13.3,-9.18l-54.78 -62.33z"/>
   <path class="fil16" d="M7094.25 4546.29c-4.61,-5.26 -17.98,-9.54 -29.88,-9.65l-127.49 -0.92c-11.96,-0.04 -18.16,4.09 -13.84,9.33l54.74 67.01c4.54,5.53 18.17,10.1 30.47,10.18l131.38 0.88c12.31,0.04 18.28,-4.34 13.45,-9.87l-58.83 -66.95z"/>
   <path class="fil16" d="M7186.33 4651.08c-4.97,-5.67 -19.01,-10.28 -31.36,-10.35l-132.19 -0.89c-12.38,-0.07 -18.69,4.43 -14.08,10.07l59.03 72.17c4.86,5.93 19.19,10.86 31.94,10.9l136.36 0.85c12.74,0.03 18.87,-4.72 13.63,-10.65l-63.33 -72.11z"/>
   <path class="fil16" d="M7285.54 4764.01c-5.38,-6.11 -20.12,-11.1 -32.93,-11.17l-137.25 -0.81c-12.87,-0.07 -19.23,4.75 -14.26,10.86l63.78 77.97c5.26,6.45 20.33,11.75 33.6,11.82l141.73 0.78c13.27,0.03 19.43,-5.12 13.79,-11.53l-68.46 -77.93z"/>
   <path class="fil16" d="M7392.73 4886.07c-5.79,-6.59 -21.31,-11.98 -34.63,-12.05l-142.71 -0.77c-13.37,-0.04 -19.86,5.22 -14.44,11.78l69.08 84.53c5.75,7 21.6,12.74 35.41,12.83l147.59 0.7c13.81,0.03 20.01,-5.57 13.86,-12.53l-74.17 -84.48z"/>
   <path class="fil16" d="M7509 5018.41c-6.27,-7.14 -22.63,-12.96 -36.51,-13.03l-148.6 -0.71c-13.93,-0.07 -20.44,5.71 -14.62,12.83l75.15 91.91c6.2,7.63 22.96,13.86 37.36,13.94l153.97 0.58c14.37,0.07 20.6,-6.09 13.93,-13.67l-80.68 -91.84z"/>
   <path class="fil16" d="M7637.18 5164.34c-6.89,-7.81 -24.17,-14.15 -38.68,-14.22l-155.11 -0.58c-14.48,-0.08 -21.15,6.18 -14.75,13.99l185.58 227c7.3,8.95 25.9,16.25 41.5,16.29l166.64 0.4c15.54,0.03 21.77,-7.19 13.97,-16.11l-199.15 -226.77z"/>
   <path class="fil16" d="M8141.91 5199.48c-8.06,-7.91 -26.37,-14.4 -40.93,-14.47l-155.82 -0.56c-14.58,-0.07 -20.3,6.34 -12.67,14.3l184.41 193.06c8.51,8.91 28.03,16.17 43.54,16.25l165.68 0.4c15.51,0.03 20.71,-7.19 11.68,-16.11l-195.9 -192.88z"/>
   <path class="fil16" d="M7011.94 4256.23c-3.98,-4.21 -15.85,-7.7 -26.53,-7.77l-114.17 -1c-10.69,-0.07 -16.36,3.24 -12.6,7.45l47.53 53.6c3.9,4.39 15.99,8.08 26.97,8.15l117.35 0.99c10.93,0.11 16.46,-3.43 12.27,-7.84l-50.81 -53.57z"/>
   <path class="fil16" d="M6935.78 4175.84c-3.72,-3.94 -15.11,-7.19 -25.5,-7.3l-110.57 -1c-10.35,-0.11 -15.92,2.99 -12.42,6.93l44.48 50.21c3.65,4.09 15.22,7.55 25.86,7.63l113.48 0.99c10.61,0.11 16.07,-3.2 12.17,-7.3l-47.5 -50.17z"/>
   <path class="fil16" d="M6864.42 4100.45c-3.5,-3.72 -14.48,-6.78 -24.49,-6.85l-107.18 -1.03c-10.03,-0.07 -15.55,2.84 -12.27,6.56l41.75 47.08c3.38,3.84 14.55,7.07 24.87,7.16l109.9 1.03c10.32,0.07 15.67,-2.99 12.02,-6.82l-44.59 -47.12z"/>
   <path class="fil16" d="M6797.32 4029.59c-3.31,-3.45 -13.86,-6.36 -23.58,-6.48l-104.05 -1c-9.73,-0.11 -15.11,2.62 -12.05,6.11l39.24 44.3c3.23,3.61 13.93,6.63 23.91,6.74l106.58 1.03c9.98,0.07 15.25,-2.8 11.82,-6.41l-41.89 -44.3z"/>
   <path class="fil16" d="M7091.23 4339.97c-4.28,-4.5 -16.61,-8.22 -27.64,-8.3l-117.93 -0.99c-11.06,-0.07 -16.77,3.5 -12.78,7.97l50.77 57.29c4.21,4.71 16.77,8.62 28.14,8.69l121.3 0.96c11.31,0.07 16.86,-3.69 12.41,-8.37l-54.27 -57.25z"/>
   <path class="fil16" d="M7176.05 4429.47c-4.58,-4.79 -17.48,-8.75 -28.89,-8.84l-121.94 -0.96c-11.39,-0.04 -17.21,3.76 -12.94,8.58l54.42 61.31c4.46,5.08 17.64,9.25 29.4,9.32l125.52 0.92c11.73,0.11 17.36,-3.94 12.57,-8.98l-58.14 -61.34z"/>
   <path class="fil16" d="M7266.9 4525.4c-4.9,-5.15 -18.42,-9.39 -30.2,-9.47l-126.23 -0.92c-11.79,-0.07 -17.73,4.02 -13.12,9.18l58.4 65.88c4.82,5.42 18.6,9.9 30.8,9.98l130.05 0.88c12.17,0.11 17.8,-4.23 12.64,-9.65l-62.34 -65.88z"/>
   <path class="fil16" d="M7364.5 4628.46c-5.26,-5.57 -19.41,-10.1 -31.68,-10.21l-130.84 -0.89c-12.27,-0.07 -18.2,4.36 -13.26,9.91l62.86 70.92c5.15,5.86 19.63,10.65 32.24,10.76l134.95 0.85c12.57,0.07 18.35,-4.61 12.78,-10.47l-67.05 -70.88z"/>
   <path class="fil16" d="M7469.58 4739.43c-5.68,-6 -20.53,-10.88 -33.24,-10.99l-135.77 -0.81c-12.7,-0.07 -18.79,4.68 -13.48,10.69l67.9 76.56c5.61,6.29 20.79,11.53 33.94,11.56l140.23 0.82c13.12,0.03 18.87,-5.05 12.89,-11.32l-72.47 -76.52z"/>
   <path class="fil16" d="M7583.1 4859.25c-6.11,-6.45 -21.74,-11.75 -34.97,-11.78l-141.12 -0.78c-13.19,-0.07 -19.26,5.08 -13.55,11.57l73.5 82.94c6.09,6.85 22.07,12.48 35.77,12.56l145.91 0.7c13.66,0.04 19.41,-5.46 12.92,-12.31l-78.47 -82.9z"/>
   <path class="fil16" d="M7706.09 4989.13c-6.67,-7 -23.14,-12.71 -36.89,-12.78l-146.86 -0.71c-13.79,-0.07 -19.94,5.57 -13.7,12.57l79.88 90.11c6.59,7.46 23.51,13.59 37.77,13.62l152.09 0.63c14.22,0.08 20,-5.93 12.92,-13.41l-85.21 -90.03z"/>
   <path class="fil16" d="M7839.78 5130.26c-7.21,-7.63 -24.68,-13.81 -38.98,-13.9l-153.16 -0.63c-14.37,-0.07 -20.51,6.04 -13.74,13.72l87.1 98.23c7.23,8.17 25.16,14.8 40.01,14.84l158.85 0.54c14.84,0.04 20.6,-6.54 12.89,-14.66l-92.97 -98.15z"/>
   <path class="fil16" d="M7985.69 5284.27c-7.97,-8.33 -26.42,-15.15 -41.41,-15.15l-159.97 -0.52c-15,-0.04 -21.15,6.67 -13.74,15.04l95.35 107.54c7.92,8.91 27.02,16.21 42.56,16.25l166.17 0.4c15.54,0.03 21.25,-7.16 12.83,-16.07l-101.77 -107.5z"/>
   <path class="fil16" d="M7067.68 4141.83c-3.87,-3.84 -15.25,-6.98 -25.46,-7.07l-108.8 -1c-10.17,-0.11 -15.47,2.91 -11.84,6.71l46.58 48.74c3.79,3.98 15.32,7.3 25.79,7.41l111.6 0.99c10.47,0.11 15.62,-3.05 11.53,-7.07l-49.41 -48.7z"/>
   <path class="fil16" d="M6995.44 4070.67c-3.69,-3.61 -14.64,-6.56 -24.51,-6.7l-105.6 -1c-9.87,-0.1 -15.14,2.73 -11.67,6.35l43.73 45.83c3.61,3.76 14.77,6.89 24.87,6.96l108.28 1.03c10.14,0.07 15.26,-2.87 11.42,-6.67l-46.52 -45.8z"/>
   <path class="fil16" d="M6927.34 4003.62c-3.47,-3.38 -13.99,-6.22 -23.62,-6.29l-102.6 -1.07c-9.62,-0.07 -14.77,2.62 -11.54,5.96l41.27 43.22c3.38,3.54 14.15,6.49 23.95,6.6l105.15 0.99c9.8,0.11 14.89,-2.69 11.24,-6.22l-43.85 -43.18z"/>
   <path class="fil16" d="M6863.05 3940.36c-3.27,-3.2 -13.45,-5.89 -22.77,-5.97l-99.8 -1.03c-9.33,-0.11 -14.41,2.4 -11.32,5.61l38.91 40.79c3.24,3.34 13.56,6.11 23.1,6.25l102.13 1c9.55,0.11 14.52,-2.55 11.17,-5.9l-41.41 -40.75z"/>
   <path class="fil16" d="M6955.53 3941.32c-3.38,-3.2 -13.74,-5.89 -23.06,-5.97l-32.91 -0.36c-9.36,-0.07 -14.22,2.42 -10.95,5.64l41.86 40.79c3.43,3.34 13.97,6.14 23.51,6.22l33.71 0.36c9.54,0.07 14.41,-2.58 10.88,-5.89l-43.04 -40.79z"/>
   <path class="fil16" d="M7043.62 4024.62c-3.68,-3.47 -14.47,-6.34 -24.16,-6.45l-34.16 -0.33c-9.69,-0.11 -14.66,2.62 -11.13,6.09l45.2 43.95c3.69,3.58 14.75,6.6 24.66,6.67l34.95 0.38c9.91,0.07 14.86,-2.77 11.06,-6.38l-46.43 -43.92z"/>
   <path class="fil16" d="M7115.43 4092.56c-3.87,-3.65 -15.07,-6.71 -25.01,-6.78l-35.19 -0.36c-9.91,-0.08 -14.96,2.8 -11.17,6.48l47.93 46.69c3.91,3.83 15.37,6.99 25.61,7.1l36.11 0.33c10.17,0.11 15.15,-2.91 11.13,-6.74l-49.41 -46.72z"/>
   <path class="fil16" d="M7191.7 4164.71c-4.09,-3.91 -15.74,-7.16 -26.01,-7.23l-36.18 -0.33c-10.25,-0.07 -15.33,2.99 -11.35,6.85l50.92 49.63c4.19,4.05 16.13,7.45 26.67,7.56l37.18 0.29c10.53,0.11 15.54,-3.13 11.24,-7.19l-52.47 -49.59z"/>
   <path class="fil16" d="M7272.83 4241.41c-4.39,-4.12 -16.5,-7.55 -27.04,-7.66l-37.39 -0.29c-10.58,-0.11 -15.71,3.16 -11.43,7.3l54.24 52.83c4.5,4.39 16.92,7.95 27.78,8.02l38.35 0.33c10.88,0.08 15.92,-3.34 11.35,-7.7l-55.85 -52.83z"/>
   <path class="fil16" d="M7840.67 4778.5c-6.49,-6.15 -22.07,-11.14 -34.9,-11.21l-45.24 -0.29c-12.78,-0.04 -18.09,4.83 -11.82,10.95l80.54 78.4c6.63,6.49 22.8,11.79 36,11.82l46.75 0.26c13.23,0.07 18.35,-5.15 11.53,-11.6l-82.86 -78.33z"/>
   <path class="fil16" d="M7969.26 4900.08c-7.05,-6.63 -23.48,-12.05 -36.78,-12.13l-47.01 -0.25c-13.3,-0.04 -18.6,5.22 -11.79,11.86l87.21 84.89c7.23,7.03 24.24,12.78 37.99,12.85l48.63 0.22c13.79,0.07 18.91,-5.57 11.46,-12.6l-89.71 -84.85z"/>
   <path class="fil16" d="M8108.57 5031.82c-7.63,-7.21 -24.98,-13.03 -38.84,-13.12l-48.96 -0.22c-13.83,-0.07 -19.09,5.68 -11.75,12.91l94.76 92.24c7.84,7.62 25.86,13.88 40.19,13.93l50.7 0.18c14.33,0.07 19.38,-6.09 11.31,-13.74l-97.41 -92.17z"/>
   <path class="fil16" d="M8259.99 5175.03c-8.29,-7.81 -26.64,-14.19 -41.08,-14.23l-51.04 -0.18c-14.44,-0.07 -19.66,6.2 -11.64,14.01l103.35 100.61c8.58,8.33 27.71,15.15 42.69,15.18l52.94 0.19c15,0.03 19.94,-6.71 11.14,-15.04l-106.38 -100.54z"/>
   <path class="fil16" d="M7144.94 4217.88c-4.12,-4.09 -15.99,-7.45 -26.49,-7.52l-112.18 -1.03c-10.54,-0.08 -15.89,3.13 -12.02,7.21l49.56 51.89c4.05,4.28 16.14,7.81 26.89,7.88l115.22 0.99c10.79,0.08 15.99,-3.27 11.67,-7.55l-52.65 -51.87z"/>
   <path class="fil16" d="M7227.18 4298.9c-4.43,-4.36 -16.72,-7.92 -27.56,-7.99l-115.8 -1c-10.86,-0.07 -16.28,3.36 -12.16,7.66l52.94 55.42c4.34,4.53 16.91,8.33 28.03,8.44l119.05 0.95c11.17,0.08 16.4,-3.54 11.79,-8.1l-56.3 -55.37z"/>
   <path class="fil16" d="M7315.05 4385.44c-4.68,-4.65 -17.57,-8.48 -28.77,-8.59l-119.67 -0.92c-11.15,-0.11 -16.65,3.54 -12.27,8.19l56.59 59.28c4.65,4.86 17.8,8.87 29.33,8.98l123.1 0.96c11.49,0.07 16.79,-3.83 11.82,-8.66l-60.13 -59.24z"/>
   <path class="fil16" d="M7409.16 4477.99c-5.08,-4.93 -18.53,-9.07 -30.11,-9.13l-123.8 -0.92c-11.6,-0.08 -17.17,3.87 -12.42,8.84l60.69 63.55c4.97,5.24 18.76,9.54 30.65,9.61l127.53 0.93c11.89,0.07 17.24,-4.09 11.93,-9.33l-64.47 -63.55z"/>
   <path class="fil16" d="M7509.99 4577.32c-5.44,-5.33 -19.52,-9.72 -31.5,-9.8l-128.25 -0.92c-12,-0.03 -17.64,4.16 -12.53,9.51l65.23 68.35c5.38,5.6 19.77,10.25 32.15,10.35l132.23 0.85c12.35,0.11 17.73,-4.41 12.02,-10.05l-69.35 -68.28z"/>
   <path class="fil16" d="M7618.5 4684.17c-5.85,-5.78 -20.62,-10.46 -33.09,-10.57l-132.96 -0.85c-12.46,-0.07 -18.09,4.53 -12.6,10.28l70.34 73.62c5.85,6.07 20.96,11.08 33.78,11.15l137.25 0.81c12.81,0.08 18.2,-4.79 12.05,-10.86l-74.76 -73.58z"/>
   <path class="fil16" d="M7735.52 4799.34c-6.35,-6.22 -21.89,-11.28 -34.79,-11.35l-138.1 -0.81c-12.92,-0.04 -18.63,4.9 -12.67,11.13l76 79.58c6.27,6.6 22.22,11.98 35.59,12.05l142.66 0.74c13.37,0.07 18.76,-5.24 12.09,-11.79l-80.79 -79.54z"/>
   <path class="fil16" d="M7862.08 4923.99c-6.85,-6.74 -23.26,-12.24 -36.67,-12.31l-143.61 -0.7c-13.45,-0.07 -19.16,5.31 -12.71,12l82.45 86.34c6.82,7.14 23.62,13.03 37.51,13.08l148.6 0.67c13.88,0.07 19.23,-5.68 12.05,-12.83l-87.62 -86.25z"/>
   <path class="fil16" d="M7999.44 5059.2c-7.45,-7.32 -24.76,-13.3 -38.8,-13.34l-149.59 -0.65c-14.01,-0.08 -19.72,5.78 -12.69,13.12l89.72 93.94c7.44,7.77 25.23,14.15 39.76,14.22l155 0.54c14.48,0.08 19.79,-6.18 11.93,-13.95l-95.35 -93.87z"/>
   <path class="fil16" d="M6403.39 3931.23c-2.55,-3.2 -12.24,-5.86 -21.6,-5.97l-100.07 -1.03c-9.36,-0.11 -15.03,2.4 -12.6,5.6l92.9 124.13c2.69,3.61 12.92,6.6 22.88,6.67l106.25 1.03c9.91,0.07 15.67,-2.73 12.76,-6.34l-100.51 -124.09z"/>
   <path class="fil16" d="M7340.48 5088.89c-6.04,-7.52 -22.48,-13.55 -36.69,-13.62l-152.13 -0.67c-14.26,-0.07 -21.29,5.92 -15.69,13.44l224.49 299.87c6.67,8.93 24.8,16.25 40.41,16.29l166.98 0.4c15.62,0.03 22.41,-7.19 15.18,-16.1l-242.54 -299.62z"/>
   <path class="fil16" d="M6943.66 4867.51c-4.79,-6.52 -19.52,-11.82 -32.89,-11.93l-169.93 -0.93c-13.37,-0.03 -20.64,5.17 -16.28,11.73l56.1 83.77c4.61,6.93 19.61,12.6 33.46,12.69l175.78 0.84c13.77,0.08 20.82,-5.49 15.69,-12.41l-61.94 -83.75z"/>
   <path class="fil16" d="M6399.23 4131.54c-2.84,-3.83 -13.38,-6.99 -23.62,-7.07l-130.31 -1.25c-10.25,-0.07 -16.47,2.91 -13.9,6.75l52.65 78.65c2.76,4.09 13.59,7.52 24.24,7.59l135.37 1.23c10.64,0.07 16.77,-3.17 13.77,-7.26l-58.21 -78.64z"/>
   <path class="fil16" d="M6824.3 4706.13c-4.34,-5.86 -18.09,-10.65 -30.76,-10.72l-161.31 -1.03c-12.67,-0.04 -19.79,4.64 -15.85,10.5l81.84 122.21c4.3,6.42 18.53,11.68 31.86,11.75l169.08 0.93c13.3,0.07 20.23,-5.1 15.44,-11.46l-90.31 -122.18z"/>
   <path class="fil16" d="M6481.35 4242.53c-3.09,-4.21 -14.26,-7.63 -24.94,-7.74l-136.31 -1.21c-10.72,-0.11 -17.14,3.2 -14.34,7.39l57.82 86.29c3.02,4.5 14.47,8.22 25.64,8.29l141.86 1.18c11.15,0.11 17.49,-3.47 14.15,-7.97l-63.86 -86.24z"/>
   <path class="fil16" d="M6481.72 4243.07l-175.64 -1.5 284.37 424.58c4.12,6.15 17.02,11.24 28.73,11.35l163.55 1.03c11.68,0.08 17.46,-4.86 12.89,-11.04l-313.9 -424.41z"/>
   <path class="fil16" d="M7131.61 5288.91c-4.87,-6.89 -18.87,-12.49 -31.25,-12.53l-78.89 -0.25c-12.45,-0.04 -18.74,5.53 -14.11,12.41l81.13 121.15c4.97,7.44 19.5,13.48 32.42,13.52l82.13 0.18c12.89,0.04 19.12,-5.96 13.88,-13.37l-85.32 -121.11z"/>
   <path class="fil16" d="M7021.37 5132.48c-4.46,-6.31 -17.69,-11.43 -29.55,-11.5l-75.45 -0.29c-11.91,0 -18.09,5.05 -13.86,11.31l74.05 110.54c4.5,6.78 18.2,12.31 30.54,12.34l78.41 0.26c12.3,0.03 18.45,-5.46 13.66,-12.2l-77.81 -110.46z"/>
   <path class="fil16" d="M6921.23 4990.41c-4.09,-5.78 -16.58,-10.5 -28,-10.53l-72.33 -0.33c-11.38,-0.07 -17.46,4.57 -13.59,10.39l67.83 101.26c4.12,6.2 17.1,11.28 28.92,11.28l75.02 0.33c11.79,0.03 17.8,-4.94 13.48,-11.13l-71.33 -101.28z"/>
   <path class="fil16" d="M7154.83 5133.02c-4.68,-6.34 -18.06,-11.45 -29.93,-11.45l-75.31 -0.33c-11.91,-0.04 -17.87,5.01 -13.41,11.31l78.33 110.46c4.79,6.78 18.67,12.31 30.98,12.35l78.33 0.25c12.31,0 18.2,-5.42 13.16,-12.2l-82.16 -110.39z"/>
   <path class="fil8" d="M6249.87 3909c-2.33,-3.23 -11.84,-5.89 -21.22,-6l-119.42 -1.21c-9.39,-0.11 -15.21,2.4 -13.1,5.6l27.22 40.63c2.21,3.33 11.82,6.09 21.44,6.2l122.25 1.21c9.61,0.11 15.36,-2.51 12.89,-5.82l-30.06 -40.61z"/>
   <path class="fil8" d="M6296.79 3972.38c-2.51,-3.38 -12.34,-6.18 -21.99,-6.34l-122.83 -1.21c-9.66,-0.11 -15.62,2.55 -13.38,5.93l28.81 43.03c2.37,3.54 12.31,6.49 22.22,6.6l125.81 1.21c9.87,0.11 15.78,-2.69 13.16,-6.22l-31.81 -43z"/>
   <path class="fil8" d="M6346.47 4039.51c-2.66,-3.58 -12.83,-6.56 -22.77,-6.67l-126.46 -1.21c-9.98,-0.11 -16.1,2.73 -13.7,6.29l30.62 45.73c2.51,3.76 12.83,6.85 23.02,6.96l129.7 1.25c10.17,0.07 16.17,-2.91 13.41,-6.67l-33.82 -45.69z"/>
   <path class="fil8" d="M6524.82 4060.55c-2.94,-3.69 -13.44,-6.67 -23.42,-6.78l-106.85 -1.03c-9.98,-0.11 -15.92,2.76 -13.16,6.45l34.79 46.43c2.84,3.83 13.48,6.99 23.73,7.1l109.58 1c10.24,0.11 16.06,-2.91 12.96,-6.74l-37.63 -46.43z"/>
   <path class="fil8" d="M6583.52 4133.09c-3.16,-3.9 -14.04,-7.1 -24.36,-7.21l-110.08 -1c-10.32,-0.11 -16.36,2.95 -13.45,6.87l37.03 49.41c3.06,4.05 14.08,7.44 24.61,7.51l113.05 1.03c10.57,0.08 16.46,-3.12 13.19,-7.21l-39.98 -49.38z"/>
   <path class="fil8" d="M6646.01 4210.25c-3.36,-4.09 -14.71,-7.56 -25.32,-7.66l-113.63 -1c-10.61,-0.11 -16.72,3.2 -13.63,7.3l39.42 52.68c3.24,4.32 14.75,7.9 25.65,8.01l116.72 0.95c10.9,0.11 16.88,-3.34 13.37,-7.66l-42.58 -52.61z"/>
   <path class="fil8" d="M6712.59 4292.52c-3.58,-4.43 -15.33,-8.03 -26.3,-8.15l-117.35 -0.99c-10.99,-0.07 -17.21,3.43 -13.9,7.84l42.11 56.3c3.47,4.61 15.44,8.44 26.75,8.55l120.59 0.99c11.31,0.08 17.39,-3.61 13.67,-8.22l-45.58 -56.33z"/>
   <path class="fil8" d="M6783.76 4380.47c-3.79,-4.72 -16.1,-8.59 -27.45,-8.7l-121.25 -0.96c-11.35,-0.07 -17.73,3.65 -14.19,8.41l45.1 60.24c3.72,4.97 16.21,9.05 27.92,9.13l124.76 0.96c11.68,0.03 17.87,-3.91 13.86,-8.84l-48.75 -60.24z"/>
   <path class="fil8" d="M6860 4474.63c-4.14,-5.08 -16.95,-9.25 -28.67,-9.27l-125.52 -0.96c-11.75,-0.07 -18.2,3.94 -14.44,8.98l48.38 64.67c4.01,5.31 17.06,9.72 29.13,9.8l129.37 0.92c12.05,0.03 18.38,-4.21 14.04,-9.51l-52.28 -64.63z"/>
   <path class="fil8" d="M6941.83 4575.7c-4.41,-5.42 -17.8,-9.87 -30,-9.98l-130.05 -0.89c-12.2,-0.07 -18.76,4.25 -14.71,9.69l52.05 69.57c4.32,5.74 17.95,10.5 30.55,10.57l134.11 0.85c12.56,0.07 18.97,-4.54 14.29,-10.25l-56.26 -69.56z"/>
   <path class="fil8" d="M7029.89 4684.54c-4.72,-5.9 -18.8,-10.65 -31.4,-10.76l-134.95 -0.85c-12.64,-0.07 -19.34,4.61 -14.97,10.47l56.16 75.04c4.64,6.2 19.01,11.28 32.06,11.39l139.29 0.77c13.05,0.08 19.54,-4.9 14.52,-11.08l-60.71 -74.97z"/>
   <path class="fil8" d="M7124.97 4802c-5.11,-6.38 -19.89,-11.54 -33,-11.61l-140.23 -0.81c-13.16,-0.04 -19.97,5.01 -15.22,11.31l60.8 81.24c5.04,6.67 20.11,12.2 33.67,12.27l144.98 0.74c13.56,0.08 20.12,-5.31 14.71,-12l-65.7 -81.13z"/>
   <path class="fil8" d="M7227.92 4929.14c-5.57,-6.85 -21.11,-12.49 -34.79,-12.52l-145.94 -0.74c-13.67,-0.04 -20.55,5.44 -15.44,12.34l66.03 88.17c5.44,7.3 21.36,13.3 35.51,13.33l151.06 0.67c14.12,0.07 20.75,-5.78 14.89,-13.12l-71.33 -88.13z"/>
   <path class="fil8" d="M6718.48 4097.8c-3.29,-3.76 -14.15,-6.89 -24.31,-7l-108.28 -0.99c-10.14,-0.11 -15.85,2.87 -12.78,6.63l39.12 47.89c3.29,3.91 14.26,7.23 24.69,7.27l111.08 1.03c10.36,0.07 16,-3.06 12.49,-6.96l-42 -47.86z"/>
   <path class="fil8" d="M6655.77 4026.43c-3.13,-3.54 -13.6,-6.49 -23.39,-6.56l-105.05 -1.03c-9.87,-0.08 -15.43,2.69 -12.56,6.22l36.8 45.06c3.02,3.68 13.67,6.74 23.73,6.85l107.7 0.99c10.05,0.11 15.58,-2.8 12.38,-6.52l-39.6 -45.02z"/>
   <path class="fil8" d="M6555.37 3912.14c-2.84,-3.16 -12.64,-5.85 -21.96,-5.96l-99.93 -1.03c-9.36,-0.11 -14.8,2.4 -12.18,5.64l73.05 89.41c2.88,3.47 13.12,6.38 22.88,6.45l104.54 1.07c9.76,0.07 15.18,-2.66 12.16,-6.15l-78.55 -89.43z"/>
   <path class="fil8" d="M6707.09 3913.72c-3.02,-3.16 -13.01,-5.86 -22.32,-5.93l-99.73 -1.03c-9.36,-0.11 -14.64,2.44 -11.79,5.6l63.85 71.99c3.02,3.43 13.34,6.31 23.03,6.38l103.49 1.03c9.73,0.11 14.93,-2.62 11.68,-6l-68.21 -72.04z"/>
   <path class="fil8" d="M6784.16 4172.59c-3.54,-4.02 -14.84,-7.3 -25.27,-7.41l-111.62 -0.99c-10.43,-0.11 -16.29,3.05 -13.01,7.07l41.66 50.98c3.43,4.21 14.93,7.67 25.68,7.78l114.59 0.99c10.75,0.11 16.43,-3.24 12.74,-7.41l-44.77 -51.02z"/>
   <path class="fil8" d="M6854.1 4252.2c-3.76,-4.26 -15.51,-7.8 -26.26,-7.88l-115.22 -0.99c-10.75,-0.11 -16.68,3.27 -13.19,7.55l44.48 54.42c3.65,4.5 15.61,8.17 26.71,8.26l118.38 0.99c11.06,0.11 16.84,-3.47 12.89,-7.92l-47.79 -54.42z"/>
   <path class="fil8" d="M6928.78 4337.2c-4.01,-4.57 -16.28,-8.33 -27.4,-8.4l-119.05 -0.99c-11.15,-0.08 -17.17,3.54 -13.41,8.1l47.53 58.18c3.94,4.75 16.4,8.73 27.89,8.8l122.4 0.96c11.45,0.03 17.35,-3.76 13.12,-8.55l-51.08 -58.11z"/>
   <path class="fil8" d="M7008.63 4428.14c-4.28,-4.86 -17.1,-8.87 -28.59,-8.95l-123.1 -0.95c-11.49,-0.11 -17.69,3.79 -13.67,8.65l50.99 62.39c4.21,5.11 17.21,9.36 29.1,9.43l126.75 0.92c11.86,0.11 17.8,-4.01 13.3,-9.13l-54.78 -62.34z"/>
   <path class="fil8" d="M7094.25 4525.63c-4.61,-5.24 -17.98,-9.54 -29.88,-9.65l-127.49 -0.92c-11.96,-0.07 -18.16,4.08 -13.84,9.32l54.74 67.02c4.54,5.56 18.17,10.1 30.47,10.17l131.38 0.89c12.31,0.03 18.28,-4.34 13.45,-9.87l-58.83 -66.95z"/>
   <path class="fil8" d="M7186.33 4630.41c-4.97,-5.64 -19.01,-10.28 -31.36,-10.36l-132.19 -0.88c-12.38,-0.04 -18.69,4.41 -14.08,10.05l59.03 72.22c4.86,5.93 19.19,10.83 31.94,10.9l136.36 0.85c12.74,0.04 18.87,-4.72 13.63,-10.65l-63.33 -72.13z"/>
   <path class="fil8" d="M7285.54 4743.33c-5.38,-6.07 -20.12,-11.04 -32.93,-11.15l-137.25 -0.81c-12.87,-0.08 -19.23,4.75 -14.26,10.86l63.78 77.97c5.26,6.45 20.33,11.75 33.6,11.82l141.73 0.77c13.27,0.04 19.43,-5.11 13.79,-11.53l-68.46 -77.93z"/>
   <path class="fil8" d="M7392.73 4865.44c-5.79,-6.6 -21.31,-11.98 -34.63,-12.06l-142.71 -0.77c-13.37,-0.04 -19.86,5.24 -14.44,11.79l69.08 84.51c5.75,7 21.6,12.76 35.41,12.83l147.59 0.7c13.81,0.04 20.01,-5.56 13.86,-12.56l-74.17 -84.44z"/>
   <path class="fil8" d="M7509 4997.79c-6.27,-7.16 -22.63,-12.98 -36.51,-13.05l-148.6 -0.67c-13.93,-0.07 -20.44,5.68 -14.62,12.83l75.15 91.91c6.2,7.63 22.96,13.86 37.36,13.9l153.97 0.65c14.37,0.04 20.6,-6.07 13.93,-13.7l-80.68 -91.86z"/>
   <path class="fil8" d="M7637.18 5143.67c-6.89,-7.81 -24.17,-14.15 -38.68,-14.22l-155.11 -0.6c-14.48,-0.03 -21.15,6.2 -14.75,14.01l185.58 227.02c7.3,8.93 25.9,16.22 41.5,16.25l166.64 0.4c15.54,0.04 21.77,-7.19 13.97,-16.1l-199.15 -226.77z"/>
   <path class="fil8" d="M8141.91 5178.86c-8.06,-7.92 -26.37,-14.41 -40.93,-14.48l-155.82 -0.56c-14.58,-0.03 -20.3,6.34 -12.67,14.3l184.41 193.02c8.51,8.93 28.03,16.22 43.54,16.25l165.68 0.4c15.51,0.04 20.71,-7.21 11.68,-16.1l-195.9 -192.84z"/>
   <path class="fil8" d="M7011.94 4235.59c-3.98,-4.19 -15.85,-7.7 -26.53,-7.77l-114.17 -1.03c-10.69,-0.07 -16.36,3.27 -12.6,7.44l47.53 53.61c3.9,4.41 15.99,8.06 26.97,8.17l117.35 0.96c10.93,0.07 16.46,-3.38 12.27,-7.84l-50.81 -53.54z"/>
   <path class="fil8" d="M6935.78 4155.2c-3.72,-3.94 -15.11,-7.19 -25.5,-7.3l-110.57 -0.99c-10.35,-0.11 -15.92,2.98 -12.42,6.92l44.48 50.19c3.65,4.12 15.22,7.55 25.86,7.66l113.48 0.99c10.61,0.11 16.07,-3.2 12.17,-7.28l-47.5 -50.19z"/>
   <path class="fil8" d="M6864.42 4079.82c-3.5,-3.73 -14.48,-6.78 -24.49,-6.89l-107.18 -1.03c-10.03,-0.08 -15.55,2.83 -12.27,6.52l41.75 47.08c3.38,3.87 14.55,7.07 24.87,7.19l109.9 1c10.32,0.11 15.67,-2.99 12.02,-6.82l-44.59 -47.04z"/>
   <path class="fil8" d="M6797.32 4008.93c-3.31,-3.47 -13.86,-6.38 -23.58,-6.49l-104.05 -1.03c-9.73,-0.11 -15.11,2.62 -12.05,6.11l39.24 44.3c3.23,3.65 13.93,6.67 23.91,6.74l106.58 1.03c9.98,0.07 15.25,-2.8 11.82,-6.41l-41.89 -44.25z"/>
   <path class="fil8" d="M7091.23 4319.34c-4.28,-4.5 -16.61,-8.22 -27.64,-8.29l-117.93 -1c-11.06,-0.07 -16.77,3.47 -12.78,7.92l50.77 57.3c4.21,4.71 16.77,8.62 28.14,8.69l121.3 0.96c11.31,0.07 16.86,-3.69 12.41,-8.37l-54.27 -57.22z"/>
   <path class="fil8" d="M7176.05 4408.79c-4.58,-4.79 -17.48,-8.73 -28.89,-8.84l-121.94 -0.96c-11.39,-0.07 -17.21,3.76 -12.94,8.55l54.42 61.35c4.46,5.08 17.64,9.25 29.4,9.32l125.52 0.92c11.73,0.11 17.36,-3.94 12.57,-8.98l-58.14 -61.35z"/>
   <path class="fil8" d="M7266.9 4504.78c-4.9,-5.17 -18.42,-9.4 -30.2,-9.47l-126.23 -0.93c-11.79,-0.1 -17.73,4.02 -13.12,9.15l58.4 65.91c4.82,5.38 18.6,9.87 30.8,9.98l130.05 0.89c12.17,0.03 17.8,-4.28 12.64,-9.73l-62.34 -65.8z"/>
   <path class="fil8" d="M7364.5 4607.79c-5.26,-5.56 -19.41,-10.12 -31.68,-10.17l-130.84 -0.88c-12.27,-0.08 -18.2,4.3 -13.26,9.87l62.86 70.92c5.15,5.86 19.63,10.68 32.24,10.76l134.95 0.81c12.57,0.07 18.35,-4.61 12.78,-10.47l-67.05 -70.85z"/>
   <path class="fil8" d="M7469.58 4718.77c-5.68,-5.97 -20.53,-10.88 -33.24,-10.99l-135.77 -0.81c-12.7,-0.07 -18.79,4.68 -13.48,10.68l67.9 76.56c5.61,6.34 20.79,11.57 33.94,11.61l140.23 0.81c13.12,0.04 18.87,-5.01 12.89,-11.31l-72.47 -76.56z"/>
   <path class="fil8" d="M7583.1 4838.62c-6.11,-6.49 -21.74,-11.77 -34.97,-11.84l-141.12 -0.77c-13.19,-0.04 -19.26,5.08 -13.55,11.56l73.5 82.94c6.09,6.85 22.07,12.49 35.77,12.56l145.91 0.71c13.66,0.03 19.41,-5.46 12.92,-12.31l-78.47 -82.86z"/>
   <path class="fil8" d="M7706.09 4968.45c-6.67,-6.99 -23.14,-12.7 -36.89,-12.78l-146.86 -0.7c-13.79,-0.07 -19.94,5.57 -13.7,12.6l79.88 90.08c6.59,7.48 23.51,13.56 37.77,13.63l152.09 0.63c14.22,0.07 20,-5.93 12.92,-13.37l-85.21 -90.1z"/>
   <path class="fil8" d="M7839.78 5109.62c-7.21,-7.62 -24.68,-13.86 -38.98,-13.88l-153.16 -0.63c-14.37,-0.07 -20.51,6.04 -13.74,13.7l87.1 98.23c7.23,8.15 25.16,14.8 40.01,14.84l158.85 0.56c14.84,0.03 20.6,-6.56 12.89,-14.66l-92.97 -98.16z"/>
   <path class="fil8" d="M7985.69 5263.64c-7.97,-8.33 -26.42,-15.15 -41.41,-15.15l-159.97 -0.54c-15,-0.04 -21.15,6.67 -13.74,15.03l95.35 107.59c7.92,8.88 27.02,16.18 42.56,16.21l166.17 0.4c15.54,0.04 21.25,-7.14 12.83,-16.06l-101.77 -107.48z"/>
   <path class="fil8" d="M7067.68 4121.15c-3.87,-3.79 -15.25,-7 -25.46,-7.1l-108.8 -1c-10.17,-0.11 -15.47,2.91 -11.84,6.74l46.58 48.71c3.79,3.98 15.32,7.3 25.79,7.41l111.6 0.99c10.47,0.11 15.62,-3.05 11.53,-7.07l-49.41 -48.67z"/>
   <path class="fil8" d="M6995.44 4050.01c-3.69,-3.61 -14.64,-6.56 -24.51,-6.67l-105.6 -0.99c-9.87,-0.11 -15.14,2.69 -11.67,6.29l43.73 45.84c3.61,3.75 14.77,6.88 24.87,6.96l108.28 1.03c10.14,0.07 15.26,-2.88 11.42,-6.63l-46.52 -45.84z"/>
   <path class="fil8" d="M6927.34 3982.96c-3.47,-3.4 -13.99,-6.22 -23.62,-6.31l-102.6 -1.06c-9.62,-0.08 -14.77,2.6 -11.54,5.96l41.27 43.22c3.38,3.54 14.15,6.48 23.95,6.56l105.15 1.03c9.8,0.07 14.89,-2.69 11.24,-6.22l-43.85 -43.18z"/>
   <path class="fil8" d="M6863.05 3919.7c-3.27,-3.2 -13.45,-5.9 -22.77,-5.97l-99.8 -1.03c-9.33,-0.11 -14.41,2.44 -11.32,5.64l38.91 40.79c3.24,3.36 13.56,6.11 23.1,6.22l102.13 1.03c9.55,0.11 14.52,-2.58 11.17,-5.89l-41.41 -40.79z"/>
   <path class="fil8" d="M6955.53 3920.66c-3.38,-3.24 -13.74,-5.9 -23.06,-5.97l-32.91 -0.38c-9.36,-0.07 -14.22,2.44 -10.95,5.64l41.86 40.79c3.43,3.31 13.97,6.15 23.51,6.22l33.71 0.38c9.54,0.07 14.41,-2.55 10.88,-5.89l-43.04 -40.79z"/>
   <path class="fil8" d="M7043.62 4003.99c-3.68,-3.5 -14.47,-6.34 -24.16,-6.45l-34.16 -0.36c-9.69,-0.07 -14.66,2.62 -11.13,6.09l45.2 43.95c3.69,3.58 14.75,6.6 24.66,6.71l34.95 0.32c9.91,0.11 14.86,-2.76 11.06,-6.34l-46.43 -43.92z"/>
   <path class="fil8" d="M7115.43 4071.93c-3.87,-3.65 -15.07,-6.7 -25.01,-6.77l-35.19 -0.38c-9.91,-0.07 -14.96,2.8 -11.17,6.45l47.93 46.68c3.91,3.84 15.37,7 25.61,7.12l36.11 0.33c10.17,0.07 15.15,-2.95 11.13,-6.78l-49.41 -46.65z"/>
   <path class="fil8" d="M7191.7 4144.07c-4.09,-3.87 -15.74,-7.14 -26.01,-7.23l-36.18 -0.32c-10.25,-0.08 -15.33,2.98 -11.35,6.85l50.92 49.63c4.19,4.05 16.13,7.44 26.67,7.55l37.18 0.33c10.53,0.07 15.54,-3.17 11.24,-7.23l-52.47 -49.59z"/>
   <path class="fil8" d="M7272.83 4220.79c-4.39,-4.14 -16.5,-7.56 -27.04,-7.67l-37.39 -0.33c-10.58,-0.11 -15.71,3.17 -11.43,7.34l54.24 52.83c4.5,4.32 16.92,7.92 27.78,7.99l38.35 0.33c10.88,0.11 15.92,-3.36 11.35,-7.7l-55.85 -52.79z"/>
   <path class="fil8" d="M7840.67 4757.82c-6.49,-6.15 -22.07,-11.13 -34.9,-11.2l-45.24 -0.26c-12.78,-0.07 -18.09,4.83 -11.82,10.95l80.54 78.41c6.63,6.45 22.8,11.78 36,11.85l46.75 0.26c13.23,0.07 18.35,-5.15 11.53,-11.6l-82.86 -78.41z"/>
   <path class="fil8" d="M7969.26 4879.44c-7.05,-6.63 -23.48,-12.05 -36.78,-12.11l-47.01 -0.26c-13.3,-0.04 -18.6,5.24 -11.79,11.86l87.21 84.93c7.23,7.03 24.24,12.78 37.99,12.81l48.63 0.22c13.79,0.08 18.91,-5.56 11.46,-12.6l-89.71 -84.85z"/>
   <path class="fil8" d="M8108.57 5011.16c-7.63,-7.23 -24.98,-13.05 -38.84,-13.12l-48.96 -0.22c-13.83,-0.07 -19.09,5.68 -11.75,12.87l94.76 92.24c7.84,7.66 25.86,13.88 40.19,13.97l50.7 0.18c14.33,0.03 19.38,-6.11 11.31,-13.74l-97.41 -92.17z"/>
   <path class="fil8" d="M8259.99 5154.39c-8.29,-7.81 -26.64,-14.19 -41.08,-14.22l-51.04 -0.19c-14.44,-0.07 -19.66,6.2 -11.64,14.05l103.35 100.61c8.58,8.33 27.71,15.15 42.69,15.18l52.94 0.19c15,0 19.94,-6.71 11.14,-15.08l-106.38 -100.54z"/>
   <path class="fil8" d="M7144.94 4197.24c-4.12,-4.09 -15.99,-7.45 -26.49,-7.52l-112.18 -1.03c-10.54,-0.07 -15.89,3.13 -12.02,7.23l49.56 51.87c4.05,4.28 16.14,7.81 26.89,7.88l115.22 1c10.79,0.07 15.99,-3.29 11.67,-7.56l-52.65 -51.87z"/>
   <path class="fil8" d="M7227.18 4278.26c-4.43,-4.34 -16.72,-7.95 -27.56,-8.03l-115.8 -0.99c-10.86,-0.07 -16.28,3.36 -12.16,7.7l52.94 55.37c4.34,4.54 16.91,8.33 28.03,8.44l119.05 0.96c11.17,0.07 16.4,-3.54 11.79,-8.1l-56.3 -55.34z"/>
   <path class="fil8" d="M7315.05 4364.76c-4.68,-4.64 -17.57,-8.47 -28.77,-8.58l-119.67 -0.92c-11.15,-0.11 -16.65,3.56 -12.27,8.22l56.59 59.24c4.65,4.87 17.8,8.88 29.33,9l123.1 0.92c11.49,0.07 16.79,-3.79 11.82,-8.66l-60.13 -59.21z"/>
   <path class="fil8" d="M7409.16 4457.35c-5.08,-4.97 -18.53,-9.05 -30.11,-9.13l-123.8 -0.96c-11.6,-0.1 -17.17,3.87 -12.42,8.84l60.69 63.57c4.97,5.22 18.76,9.54 30.65,9.61l127.53 0.89c11.89,0.11 17.24,-4.09 11.93,-9.33l-64.47 -63.49z"/>
   <path class="fil8" d="M7509.99 4556.69c-5.44,-5.35 -19.52,-9.73 -31.5,-9.8l-128.25 -0.89c-12,-0.11 -17.64,4.16 -12.53,9.51l65.23 68.3c5.38,5.64 19.77,10.28 32.15,10.39l132.23 0.85c12.35,0.08 17.73,-4.46 12.02,-10.05l-69.35 -68.3z"/>
   <path class="fil8" d="M7618.5 4663.54c-5.85,-5.79 -20.62,-10.47 -33.09,-10.54l-132.96 -0.85c-12.46,-0.07 -18.09,4.5 -12.6,10.28l70.34 73.65c5.85,6.04 20.96,11.06 33.78,11.13l137.25 0.85c12.81,0.04 18.2,-4.83 12.05,-10.86l-74.76 -73.65z"/>
   <path class="fil8" d="M7735.52 4778.7c-6.35,-6.22 -21.89,-11.27 -34.79,-11.35l-138.1 -0.81c-12.92,-0.03 -18.63,4.9 -12.67,11.13l76 79.58c6.27,6.6 22.22,11.98 35.59,12.06l142.66 0.72c13.37,0.08 18.76,-5.22 12.09,-11.78l-80.79 -79.56z"/>
   <path class="fil8" d="M7862.08 4903.32c-6.85,-6.75 -23.26,-12.24 -36.67,-12.31l-143.61 -0.7c-13.45,-0.08 -19.16,5.31 -12.71,12l82.45 86.32c6.82,7.16 23.62,13.01 37.51,13.09l148.6 0.65c13.88,0.04 19.23,-5.71 12.05,-12.85l-87.62 -86.21z"/>
   <path class="fil8" d="M7999.44 5038.56c-7.45,-7.32 -24.76,-13.3 -38.8,-13.33l-149.59 -0.67c-14.01,-0.07 -19.72,5.78 -12.69,13.12l89.72 93.9c7.44,7.77 25.23,14.15 39.76,14.22l155 0.6c14.48,0.03 19.79,-6.2 11.93,-13.97l-95.35 -93.87z"/>
   <path class="fil8" d="M6403.39 3910.56c-2.55,-3.17 -12.24,-5.86 -21.6,-5.97l-100.07 -1.03c-9.36,-0.11 -15.03,2.4 -12.6,5.6l92.9 124.13c2.69,3.58 12.92,6.59 22.88,6.67l106.25 1.07c9.91,0.07 15.67,-2.77 12.76,-6.35l-100.51 -124.12z"/>
   <path class="fil8" d="M7340.48 5068.22c-6.04,-7.48 -22.48,-13.55 -36.69,-13.63l-152.13 -0.65c-14.26,-0.04 -21.29,5.93 -15.69,13.45l224.49 299.85c6.67,8.95 24.8,16.25 40.41,16.28l166.98 0.42c15.62,0.03 22.41,-7.19 15.18,-16.11l-242.54 -299.6z"/>
   <path class="fil8" d="M6943.66 4846.84c-4.79,-6.53 -19.52,-11.86 -32.89,-11.95l-169.93 -0.92c-13.37,-0.04 -20.64,5.17 -16.28,11.73l56.1 83.77c4.61,6.93 19.61,12.6 33.46,12.67l175.78 0.85c13.77,0.07 20.82,-5.49 15.69,-12.45l-61.94 -83.7z"/>
   <path class="fil8" d="M6399.23 4110.88c-2.84,-3.83 -13.38,-7 -23.62,-7.07l-130.31 -1.21c-10.25,-0.08 -16.47,2.91 -13.9,6.74l52.65 78.66c2.76,4.08 13.59,7.51 24.24,7.59l135.37 1.21c10.64,0.07 16.77,-3.16 13.77,-7.26l-58.21 -78.66z"/>
   <path class="fil8" d="M6824.3 4685.49c-4.34,-5.89 -18.09,-10.68 -30.76,-10.79l-161.31 -0.99c-12.67,-0.08 -19.79,4.61 -15.85,10.46l81.84 122.21c4.3,6.42 18.53,11.64 31.86,11.75l169.08 0.93c13.3,0.03 20.23,-5.1 15.44,-11.5l-90.31 -122.07z"/>
   <path class="fil8" d="M6481.35 4221.89c-3.09,-4.21 -14.26,-7.66 -24.94,-7.74l-136.31 -1.21c-10.72,-0.11 -17.14,3.2 -14.34,7.41l57.82 86.28c3.02,4.5 14.47,8.22 25.64,8.3l141.86 1.17c11.15,0.11 17.49,-3.45 14.15,-7.95l-63.86 -86.25z"/>
   <path class="fil8" d="M6481.72 4222.45l-175.64 -1.52 284.37 424.6c4.12,6.15 17.02,11.24 28.73,11.35l163.55 1.03c11.68,0.07 17.46,-4.9 12.89,-11.1l-313.9 -424.36z"/>
   <path class="fil8" d="M7131.61 5268.27c-4.87,-6.89 -18.87,-12.49 -31.25,-12.52l-78.89 -0.26c-12.45,-0.04 -18.74,5.49 -14.11,12.42l81.13 121.14c4.97,7.45 19.5,13.45 32.42,13.49l82.13 0.18c12.89,0.04 19.12,-5.97 13.88,-13.38l-85.32 -121.07z"/>
   <path class="fil8" d="M7021.37 5111.8c-4.46,-6.29 -17.69,-11.42 -29.55,-11.45l-75.45 -0.33c-11.91,0 -18.09,5.04 -13.86,11.35l74.05 110.48c4.5,6.75 18.2,12.31 30.54,12.35l78.41 0.25c12.3,0.04 18.45,-5.42 13.66,-12.16l-77.81 -110.5z"/>
   <path class="fil8" d="M6921.23 4969.79c-4.09,-5.79 -16.58,-10.54 -28,-10.58l-72.33 -0.32c-11.38,-0.08 -17.46,4.57 -13.59,10.35l67.83 101.28c4.12,6.24 17.1,11.27 28.92,11.31l75.02 0.29c11.79,0.03 17.8,-4.93 13.48,-11.11l-71.33 -101.21z"/>
   <path class="fil8" d="M7154.83 5112.35c-4.68,-6.29 -18.06,-11.42 -29.93,-11.46l-75.31 -0.33c-11.91,-0.03 -17.87,5.01 -13.41,11.32l78.33 110.46c4.79,6.78 18.67,12.31 30.98,12.34l78.33 0.26c12.31,0.03 18.2,-5.42 13.16,-12.2l-82.16 -110.39z"/>
   <path class="fil8" d="M9690.42 2479.31l-1924.11 -536.53c-60.42,-14.58 -165.64,8.24 -165.64,58.46l-312.89 1767.98c-2.69,16.52 2.59,33.46 13.34,43.04l1713.8 1659.32c73.87,49.41 127.19,-52.72 133.33,-80.39l631.76 -2780.6c15.92,-85.85 -44.35,-119.34 -89.6,-131.29z"/>
   <path class="fil5" d="M9664.3 2532.71l-2025.1 -563.99c-17.64,-4.65 -34.88,9.89 -38.53,32.47l-408.08 1819.13c-2.7,16.5 2.6,33.42 13.33,43.03l1797.11 1601.89c18.38,16.39 43.88,4.72 50.03,-22.95l636.11 -2857c5.19,-23.45 -6.22,-47.68 -24.87,-52.58z"/>
   <path class="fil41" d="M9664.3 2532.71l-2025.1 -563.99c-17.64,-4.65 -34.88,9.89 -38.53,32.47l-282.08 1250.99c61.38,195.22 203.42,136.48 256.25,120.97 124.17,-36.44 583.5,-428.91 882.71,195.41 286.16,596.98 880.13,554.42 889.6,556.9l341.98 -1540.18c5.24,-23.45 -6.18,-47.68 -24.83,-52.58z"/>
   <polygon class="fil9" points="7258.57,3811.55 9014.3,5321.37 9619.39,2603.65 7656.26,2056.02 "/>
   <polygon class="fil42" points="7355.43,3509.4 8399.01,2252.02 7656.26,2056.02 "/>
   <path class="fil43" d="M7672.62 4167.62l605.57 520.75c409.37,-525.73 818.78,-1051.45 1228.19,-1577.19l113 -507.53 -604.61 -159.54c-447.36,574.49 -894.77,1149 -1342.16,1723.52z"/>
   <polygon class="fil16" points="7258.57,3811.55 7282.05,3832.44 7676.9,2094.36 9612.45,2634.72 9619.39,2603.65 7656.26,2056.02 "/>
   <path class="fil22" d="M8967.21 2629.94l-920.52 -249.85c-124.34,-33.74 -248.22,64.06 -284.95,215.27l-199.06 820.13c-35.22,145.05 17.57,327.8 124.76,414.78l785.73 637.62c190.22,154.35 407.3,120.63 466.62,-92.37l339.19 -1217.28c63.22,-226.9 -86.52,-467.16 -311.77,-528.31z"/>
   <g>
    <polygon class="fil44" points="7736.92,2697.69 9236.36,3311.29 9240.48,3296.33 7739.35,2687.7 "/>
   </g>
   <g>
    <polygon class="fil44" points="8028.32,4106.89 8037.61,4114.46 8454.89,2490.91 8444.03,2487.93 "/>
   </g>
   <g>
    <polygon class="fil44" points="7757.44,3887.06 7765.25,3893.39 8137.07,2404.64 8128.02,2402.18 "/>
   </g>
   <g>
    <polygon class="fil44" points="8354.24,4371.36 8365.55,4380.54 8840.1,2595.46 8826.79,2591.87 "/>
   </g>
   <g>
    <polygon class="fil44" points="7660.13,3014.01 9105.07,3782.3 9109.17,3767.72 7662.57,3004.15 "/>
   </g>
   <g>
    <polygon class="fil44" points="7584.38,3326.05 8976.5,4243.85 8980.47,4229.52 7586.75,3316.34 "/>
   </g>
   <g>
    <path class="fil44" d="M7597.14 3629.22l1124.59 860.79 448.53 -1634.27 -1286.15 -399.59 -286.97 1173.06zm1553.45 -763.81l-438.77 1600.65 -1105.32 -841.45 282.89 -1155.63 1261.2 396.42z"/>
   </g>
   <path class="fil45" d="M8937.33 2775.89l-923.63 -285.3c-74.28,-22.93 -150.7,34.63 -173.24,127.08l-208.64 853.15c-21.71,88.73 11.82,199.88 77.26,250.14l807.4 619.72c112.99,86.77 237.52,61.86 271.28,-61.09l327.4 -1191.95c35.77,-130.24 -47.39,-271.49 -177.81,-311.74zm147.05 300.4l-324.31 1183.95c-29.37,107.14 -137.65,129.73 -236.69,54.6l-809.24 -614.37c-57.69,-43.81 -87.44,-141.59 -68.23,-219.8l209.97 -857.31c19.94,-81.46 87.33,-131.76 152.47,-111.17l921.62 291.37c113.63,35.89 185.47,159.32 154.42,272.71z"/>
   <g>
    <path class="fil44" d="M8415.58 2621.28c-313.88,-97.5 -597.09,103.23 -676.74,428.86 -78.55,321.09 50.21,725.98 325.84,936.99 332.12,254.18 754.86,146.45 877.29,-299.59 124.87,-454.92 -146.05,-948.12 -526.39,-1066.26zm511.81 1058.49c-119.79,436.93 -533.57,544.19 -859.76,295.9 -271.57,-206.73 -398.9,-605.26 -321.46,-921.62 78.51,-320.78 357.73,-517.64 666.28,-420.63 372.64,117.13 637.04,600.89 514.94,1046.34z"/>
   </g>
   <g>
    <path class="fil44" d="M8336.33 2929.74c-177.19,-71.85 -348.28,33.41 -396.59,226.81 -47.89,191.83 35.93,427.42 200.62,536.04 182.89,120.55 396.59,43.18 457.82,-187.21 61.9,-232.71 -64.77,-495.73 -261.85,-575.64zm249.58 569.17c-59.1,222.61 -265.43,298.17 -442.6,182.11 -160.06,-104.9 -241.7,-333.58 -195.16,-519.98 46.9,-187.91 213.28,-289.62 385.09,-219.32 190.44,77.95 312.4,332.38 252.67,557.19z"/>
   </g>
   <g>
    <path class="fil44" d="M8299.78 3071.93c-112.59,-50.74 -225,13.34 -256.75,139.35 -31.58,125.31 25.39,277.2 132.86,342.88 114.91,70.23 244.24,17.14 281.11,-123.56 37.18,-141.56 -36.76,-304.38 -157.22,-358.67zm145.91 352.67c-35.01,133.43 -157.51,184.25 -266.75,117.96 -102.53,-62.26 -157.06,-206.97 -126.89,-326.51 30.32,-120.18 137.57,-180.93 244.72,-132.21 114.21,51.87 184.06,206.53 148.92,340.75z"/>
   </g>
   <g>
    <polygon class="fil44" points="7568.06,3639.53 7571.15,3650.19 9236.9,2835.17 9228.35,2821.26 "/>
   </g>
   <g>
    <polygon class="fil44" points="7865.25,2421.84 8747.14,4567.85 8759.63,4565.79 7872.47,2416.17 "/>
   </g>
   <path class="fil45" d="M8378.12 2940.01c-23.66,-9.54 -49.16,-4.02 -66.62,14.27l-434.43 454.51c-14.41,15.11 -20.6,39.94 -16.61,66.7 3.97,26.9 17.46,50.34 36.21,62.72 18.69,12.38 39.58,10.97 54.46,-3.87l456.12 -455.24c18.65,-18.63 26.12,-47.43 19.9,-76.78 -6.27,-29.22 -24.69,-52.48 -49.03,-62.3zm13.41 118.59l-452.49 455.15c-10.05,10.14 -24.27,11.2 -36.99,2.87 -12.83,-8.36 -22.03,-24.31 -24.84,-42.69 -2.72,-18.3 1.52,-35.33 11.39,-45.59l437.74 -454.67c11.98,-12.45 29.41,-16.08 45.51,-9.48 16.5,6.8 28.92,22.66 33.09,42.42 4.16,19.87 -0.85,39.34 -13.41,52.01z"/>
   <path class="fil45" d="M8371.92 3113.86l-21.67 3.66 139.42 687.85c4.61,22.66 -0.81,42.92 -14.37,54.04 -13.48,11.06 -32.17,10.69 -49.81,-0.88 -17.28,-11.28 -30.58,-31.83 -34.81,-53.84l-50.03 -244.01 -262.37 -153.39 60.13 -60 183.03 99.86 -45.8 -236.92 -20.67 3.09 36.37 190.11 -158.14 -85 -92.25 92.8 281.15 166.66 46.05 226.97c6.09,31.86 25.43,62.04 50.7,78.73 25.97,17.2 53.5,17.98 73.47,1.81 20.15,-16.36 28.14,-46.32 21.25,-79.89l-141.66 -691.65z"/>
   <path class="fil45" d="M8295.25 2906.55c-22.95,-9.26 -46.76,-3.8 -63.74,14.47 -16.92,18.1 -23.8,45.22 -18.53,72.75l12.78 66.86 20.23 -3.86 -13.01 -67.2c-3.62,-18.84 1.06,-37.39 12.67,-49.74 11.67,-12.42 27.89,-16.06 43.5,-9.64 13.86,5.72 25.18,18.99 30.06,35.51l20.46 -7.03c-7.26,-24.37 -23.99,-43.84 -44.44,-52.11z"/>
   <path class="fil21" d="M9198.8 6510.55c0,0 79.18,14.51 132.83,-35.59 44.02,-41.12 645.69,-502.88 645.69,-502.88l-1101.53 -189.49c-0.03,0 -124.27,590.39 323.01,727.97z"/>
   <path class="fil46" d="M9871.03 5752.55c0,0 -960.79,376.25 -744.92,695.43 19.72,29.19 86.48,64.56 140.16,14.44 44.03,-41.11 640.87,-492.97 640.87,-492.97 0,0 -80.07,-36.51 -36.11,-216.9z"/>
   <path class="fil22" d="M7665.48 5882.32c0,0 -172.76,173.75 16.79,340.77l1520.81 288.34c0,0 -212.62,-134.48 47.61,-376.36l689.57 -412.73 -1442.55 -234.39 -832.23 394.38z"/>
   <path class="fil5" d="M9058.62 6112.45c0,0 62.52,10.72 111.93,-26.32 40.83,-30.58 608.3,-387.78 608.3,-387.78l-914.25 -158.94c0,0 -158.58,470.09 194.02,573.04z"/>
   <path class="fil47" d="M9006.26 6066.05c12.94,21.75 63.35,47.9 112.56,10.81 40.72,-30.66 601.38,-380.74 601.38,-380.74 0,0 -61.31,-29.74 7.21,-178.37 0,0 -867.45,303.31 -721.15,548.31z"/>
   <path class="fil0" d="M7807.3 5618.7c0,0 -149.4,141.62 12.38,274.52l1242.37 219.92c0,0 -159.61,-100.47 82.76,-286.57l647.57 -333.89 -1234.68 -208.91 -750.39 334.92z"/>
   <path class="fil48" d="M8432.86 5693.23c-104.93,41.05 -209.6,259.46 203.02,344.46l426.13 75.42c0,0 -159.6,-100.47 82.8,-286.53l647.57 -333.93 -1006.66 -170.32c23.62,318.96 -301.16,350.68 -352.85,370.9z"/>
   <path class="fil9" d="M5517.84 5471.88c-397.51,155.67 -253.34,219.85 -198.88,232.16 379.67,85.61 623.07,-36.73 623.07,-36.73 0,0 -26.68,-351.13 -424.19,-195.43z"/>
   <path class="fil26" d="M5826.19 5426.81c-74.61,-45.47 -160.38,-110.79 -222.94,-151.72 -27.74,-18.17 -40.05,-47.64 -61.93,-54.31 -78.93,-24.02 -272.17,111.33 -400.39,184.4 -127.39,72.66 -1426.57,-300.76 -1792.65,-267.27 -109.16,9.98 -91.57,593.79 -0.7,615.33 224.95,53.36 1246.9,-76.96 1473.08,-101.21 48.78,-3.65 173.87,-9.2 227.04,24.42 66.7,42.15 159.69,62.23 219.09,-25.79 59.43,-87.98 200.62,-83.19 200.62,-83.19 0,0 110.97,55.9 142.04,14.44 19.34,-25.79 -6.11,-42.56 -32.61,-67.27 28.59,-3.65 54.71,51.02 109.4,24.83 72.51,-34.7 -35.12,-107.43 -35.12,-107.43 0,0 281.23,135.1 281.23,53.72 -0.04,-11.17 -55.97,-28.41 -106.15,-58.96z"/>
   <path class="fil49" d="M5574.1 5332.72c-19.34,16.39 -40.81,30.51 -64.84,41.15 -190.66,84.23 -425.88,141.59 -671.77,141.59 -968.36,0 -1064.04,-327.54 -1065.41,-338.44 -178.35,-29.93 -331.07,-47.57 -423.82,-39.06 -109.16,9.98 -91.57,593.77 -0.7,615.33 224.95,53.32 1246.9,-76.96 1473.08,-101.21 48.78,-3.65 173.87,-9.22 227.04,24.42 66.7,42.15 159.69,62.19 219.09,-25.79 59.43,-87.98 200.62,-83.19 200.62,-83.19 0,0 110.97,55.88 142.04,14.44 19.34,-25.79 -6.11,-42.56 -32.61,-67.27 28.59,-3.69 54.71,51.02 109.4,24.83 72.51,-34.72 -35.12,-107.43 -35.12,-107.43 0,0 262.59,126.11 280.27,61.19 -27.78,-1.32 -55.34,-5.74 -81.91,-14.33 -100.87,-32.71 -191.18,-83.97 -275.37,-146.23z"/>
   <path class="fil45" d="M3637.6 5078.72c0,0 76.6,-71.21 -82.6,-146.9 -159.22,-75.71 -21.49,-1180.36 -467.3,-1346.2 -253.29,-94.2 -739.71,93.33 -533.53,835.21 202.84,729.61 573.89,1294.39 765.6,1362.29 33.87,12.02 688.49,23.48 688.49,23.48 0,0 -124.97,-290.48 93.48,-620.54l-464.13 -107.35z"/>
   <path class="fil50" d="M3954.09 5523.2c-107.36,-22.88 -131.32,21.25 -226.33,-29.19 -168.12,-89.19 -291.48,-201.57 -413.36,-338.75 -166.39,-177.05 -488.89,-943.99 -569.84,-1054.34 -75.93,-103.51 -124.91,-253.9 -117.26,-388.19 -113.63,131.9 -170.35,358.38 -73.15,708.1 202.84,729.61 573.89,1294.39 765.6,1362.29 33.87,12.02 688.49,23.51 688.49,23.51 0,0 -66.31,-156.73 -54.16,-283.43z"/>
   <path class="fil7" d="M4515.71 4561.89c0,53.08 103.67,96.13 231.63,96.13 127.89,0 231.56,-43 231.6,-96.06l56.95 -410.14 -577.12 0 56.93 410.07z"/>
   <path class="fil51" d="M4829.39 4429.61c-89.61,43.54 -205.11,91.49 -316.56,111.82l2.84 20.46c0,53.08 103.72,96.13 231.63,96.13 127.89,0 231.56,-43 231.6,-96.06l37.95 -273.42c-51.69,59.28 -116.68,106.67 -187.46,141.08z"/>
   <path class="fil22" d="M4747.34 4234.49c159.35,0 288.56,-37.03 288.56,-82.72 0,-45.65 -129.21,-82.67 -288.56,-82.67 -159.35,0 -288.56,37.03 -288.56,82.67 0,45.69 129.21,82.72 288.56,82.72z"/>
   <path class="fil8" d="M4747.34 4223.77c148.92,0 269.62,-32.24 269.62,-71.99 0,-39.76 -120.7,-71.95 -269.62,-71.95 -148.93,0 -269.62,32.2 -269.62,71.95 0,39.76 120.69,71.99 269.62,71.99z"/>
   <path class="fil52" d="M2676.57 326.52l233.51 88.65 0 96.18 -331.27 -147.64 0 -76.38 331.27 -147.23 0 96.18 -233.51 90.24zm448.42 35.62l0 214.11 -100.14 0 0 -576.26 220.45 0c64.38,0 115.44,16.75 153.16,50.26 38,33.52 57,77.84 57,132.99 0,56.47 -18.6,100.4 -55.8,131.8 -36.94,31.39 -88.79,47.1 -155.55,47.1l-119.13 0zm0 -80.35l120.31 0c35.62,0 62.8,-8.31 81.53,-24.93 18.73,-16.89 28.1,-41.16 28.1,-72.83 0,-31.14 -9.5,-55.94 -28.49,-74.42 -19.01,-18.73 -45.13,-28.37 -78.37,-28.88l-123.09 0 0 201.05zm633.24 -45.91c-12.64,-2.12 -25.72,-3.16 -39.17,-3.16 -44.06,0 -73.75,16.88 -89.05,50.66l0 292.88 -96.17 0 0 -428.24 91.82 0 2.37 47.9c23.23,-37.21 55.41,-55.81 96.56,-55.81 13.74,0 25.09,1.85 34.05,5.54l-0.4 90.24zm28.52 122.31c0,-41.96 8.33,-79.69 24.94,-113.2 16.61,-33.78 39.98,-59.63 70.04,-77.58 30.06,-18.2 64.65,-27.31 103.67,-27.31 57.8,0 104.63,18.6 140.52,55.81 36.15,37.19 55.67,86.53 58.58,148.01l0.4 22.56c0,42.22 -8.17,79.96 -24.54,113.2 -16.1,33.24 -39.35,58.97 -69.67,77.17 -30.06,18.21 -64.92,27.31 -104.5,27.31 -60.42,0 -108.84,-20.05 -145.24,-60.16 -36.18,-40.37 -54.22,-94.07 -54.22,-161.07l0 -4.75zm96.15 8.3c0,44.07 9.11,78.64 27.31,103.7 18.24,24.8 43.54,37.21 76,37.21 32.46,0 57.66,-12.67 75.6,-38 18.21,-25.33 27.31,-62.4 27.31,-111.21 0,-43.28 -9.36,-77.58 -28.12,-102.91 -18.45,-25.33 -43.66,-38 -75.6,-38 -31.39,0 -56.3,12.53 -74.79,37.6 -18.46,24.8 -27.71,62.01 -27.71,111.61zm559.25 140.91c24.04,0 43.92,-7 59.77,-20.99 15.85,-13.98 24.29,-31.26 25.34,-51.84l90.64 0c-1.07,26.65 -9.4,51.58 -24.94,74.81 -15.58,22.95 -36.69,41.16 -63.33,54.61 -26.64,13.45 -55.42,20.18 -86.29,20.18 -59.86,0 -107.41,-19.38 -142.47,-58.18 -35.08,-38.78 -52.65,-92.34 -52.65,-160.68l0 -9.89c0,-65.18 17.42,-117.29 52.25,-156.34 34.85,-39.31 82.34,-58.97 142.47,-58.97 50.95,0 92.37,14.9 124.31,44.73 32.17,29.55 49.07,68.47 50.66,116.75l-90.64 0c-1.06,-24.54 -9.5,-44.71 -25.34,-60.55 -15.55,-15.83 -35.48,-23.76 -59.77,-23.76 -31.12,0 -55.14,11.35 -72.02,34.05 -16.88,22.42 -25.46,56.59 -25.72,102.5l0 15.43c0,46.44 8.29,81.14 24.91,104.09 16.91,22.7 41.19,34.05 72.83,34.05zm507.78 26.9c-28.21,33.25 -68.35,49.87 -120.29,49.87 -46.47,0 -81.69,-13.58 -105.71,-40.76 -23.73,-27.18 -35.59,-66.49 -35.59,-117.95l0 -277.45 96.17 0 0 276.26c0,54.35 22.54,81.53 67.68,81.53 46.68,0 78.22,-16.75 94.58,-50.27l0 -307.53 96.2 0 0 428.24 -90.64 0 -2.4 -41.96zm415.18 -298.42c-12.67,-2.12 -25.72,-3.16 -39.2,-3.16 -44.06,0 -73.72,16.88 -89.05,50.66l0 292.88 -96.17 0 0 -428.24 91.82 0 2.4 47.9c23.21,-37.21 55.38,-55.81 96.57,-55.81 13.7,0 25.05,1.85 34.01,5.54l-0.38 90.24zm304.74 340.38c-4.21,-8.17 -7.92,-21.5 -11.08,-39.98 -30.59,31.93 -68.05,47.89 -112.38,47.89 -43.04,0 -78.11,-12.27 -105.3,-36.8 -27.15,-24.54 -40.75,-54.88 -40.75,-91.03 0,-45.65 16.86,-80.6 50.66,-104.89 34.03,-24.54 82.56,-36.8 145.64,-36.8l58.99 0 0 -28.1c0,-22.16 -6.24,-39.84 -18.62,-53.03 -12.41,-13.47 -31.28,-20.19 -56.59,-20.19 -21.92,0 -39.85,5.54 -53.82,16.63 -14.01,10.82 -21,24.66 -21,41.55l-96.17 0c0,-23.48 7.77,-45.38 23.37,-65.7 15.54,-20.58 36.65,-36.68 63.29,-48.29 26.93,-11.6 56.88,-17.41 89.86,-17.41 50.14,0 90.12,12.66 119.94,38 29.8,25.05 45.09,60.41 45.9,106.07l0 193.14c0,38.52 5.42,69.25 16.21,92.21l0 6.73 -98.15 0zm-105.66 -69.26c19.01,0 36.8,-4.61 53.42,-13.86 16.92,-9.23 29.55,-21.63 38.03,-37.19l0 -80.74 -51.89 0c-35.62,0 -62.37,6.2 -80.32,18.6 -17.94,12.39 -26.93,29.94 -26.93,52.64 0,18.46 6.09,33.24 18.2,44.32 12.42,10.82 28.89,16.22 49.49,16.22z"/>
   <path class="fil53" d="M5854.71 576.26l0 -576.26 177.3 0c50.66,0 95.95,11.47 135.77,34.42 40.08,22.7 71.37,55.14 93.8,97.37 22.43,41.96 33.64,89.71 33.64,143.28l0 26.51c0,53.57 -11.1,101.19 -33.24,142.89 -21.92,41.68 -52.9,74 -93.03,96.96 -40.08,22.95 -85.36,34.56 -135.73,34.83l-178.51 0zm118.71 -480.09l0 384.7 57.4 0c46.47,0 81.94,-15.16 106.49,-45.51 24.54,-30.34 37.06,-73.75 37.57,-130.22l0 -30.47c0,-58.58 -12.11,-102.91 -36.4,-132.99 -24.27,-30.34 -59.75,-45.52 -106.47,-45.52l-58.58 0zm598.05 488c-62.78,0 -113.99,-19.26 -153.57,-57.78 -39.31,-38.53 -58.99,-89.85 -58.99,-153.96l0 -11.08c0,-43.02 8.33,-81.41 24.95,-115.18 16.61,-34.03 40.12,-60.16 70.43,-78.37 30.62,-18.46 65.43,-27.7 104.5,-27.7 58.58,0 104.63,18.46 138.12,55.41 33.78,36.94 50.66,89.32 50.66,157.13l0 46.69 -272.68 0c3.69,27.98 14.77,50.4 33.24,67.29 18.76,16.89 42.37,25.33 70.85,25.33 44.06,0 78.51,-15.96 103.31,-47.89l56.19 62.93c-17.14,24.27 -40.38,43.28 -69.64,57 -29.28,13.45 -61.74,20.18 -97.38,20.18zm-13.08 -351.45c-22.66,0 -41.16,7.64 -55.38,22.95 -13.99,15.3 -22.99,37.21 -26.93,65.7l159.1 0 0 -9.09c-0.52,-25.33 -7.37,-44.87 -20.57,-58.58 -13.19,-13.98 -31.94,-20.97 -56.22,-20.97zm409.26 203.82l79.54 -288.53 119.52 0 -144.46 428.24 -109.24 0 -144.43 -428.24 119.52 0 79.56 288.53zm285.76 189.19l-85.11 0 212.15 -625.73 85.11 0 -212.15 625.73zm500.67 -295.26l-229.98 -80.35 0 -110.02 344.75 144.46 0 93.01 -344.75 144.86 0 -110.43 229.98 -81.53z"/>
  </g>
 </g>
</svg>
