<?xml version="1.0" encoding="UTF-8"?>
<!DOCTYPE svg PUBLIC "-//W3C//DTD SVG 1.1//EN" "http://www.w3.org/Graphics/SVG/1.1/DTD/svg11.dtd">
<!-- Creator: CorelDRAW 2020 (64 Bit) -->
<svg xmlns="http://www.w3.org/2000/svg" xml:space="preserve" width="62.6117mm" height="56.9872mm" version="1.1" style="shape-rendering:geometricPrecision; text-rendering:geometricPrecision; image-rendering:optimizeQuality; fill-rule:evenodd; clip-rule:evenodd"
viewBox="0 0 1239.03 1127.73"
 xmlns:xlink="http://www.w3.org/1999/xlink"
 xmlns:xodm="http://www.corel.com/coreldraw/odm/2003">
 <defs>
  <style type="text/css">
   <![CDATA[
    .fil0 {fill:#0078EE}
   ]]>
  </style>
 </defs>
 <g id="Camada_x0020_1">
  <metadata id="CorelCorpID_0Corel-Layer"/>
  <g id="_1796529575520">
   <rect class="fil0" transform="matrix(1.48746 -0 -0.286037 1.56529 651.117 0.000702874)" width="96.34" height="720.46" rx="12.07" ry="12.07"/>
   <path class="fil0" d="M280.3 306.71l53.35 57.54c7.14,7.7 6.68,19.84 -1.02,26.98l-175.05 162.32 161.82 173.55c7.16,7.68 6.73,19.82 -0.95,26.98l-57.39 53.51c-7.68,7.16 -19.82,6.74 -26.98,-0.94l-228.99 -245.59c-7.16,-7.68 -6.74,-19.82 0.94,-26.98l57.39 -53.51c1.47,-1.37 3.09,-2.46 4.82,-3.27l185.06 -171.61c7.7,-7.14 19.84,-6.68 26.98,1.02z"/>
   <path class="fil0" d="M958.73 306.71l-53.35 57.54c-7.14,7.7 -6.68,19.84 1.02,26.98l175.05 162.32 -161.83 173.55c-7.16,7.68 -6.73,19.82 0.95,26.98l57.39 53.51c7.68,7.16 19.82,6.74 26.98,-0.94l228.99 -245.59c7.16,-7.68 6.73,-19.82 -0.95,-26.98l-57.39 -53.51c-1.46,-1.37 -3.09,-2.46 -4.82,-3.27l-185.06 -171.61c-7.7,-7.14 -19.84,-6.68 -26.98,1.02z"/>
  </g>
 </g>
</svg>
