<?xml version="1.0" encoding="UTF-8"?>
<!DOCTYPE svg PUBLIC "-//W3C//DTD SVG 1.1//EN" "http://www.w3.org/Graphics/SVG/1.1/DTD/svg11.dtd">
<!-- Creator: CorelDRAW 2020 (64 Bit) -->
<svg xmlns="http://www.w3.org/2000/svg" xml:space="preserve" width="84.3423mm" height="86.2629mm" version="1.1" style="shape-rendering:geometricPrecision; text-rendering:geometricPrecision; image-rendering:optimizeQuality; fill-rule:evenodd; clip-rule:evenodd"
viewBox="0 0 12812.4 13104.16"
 xmlns:xlink="http://www.w3.org/1999/xlink"
 xmlns:xodm="http://www.corel.com/coreldraw/odm/2003">
 <defs>
  <style type="text/css">
   <![CDATA[
    .fil21 {fill:#848688;fill-rule:nonzero}
    .fil22 {fill:#0078EE;fill-rule:nonzero}
    .fil10 {fill:#263138;fill-rule:nonzero}
    .fil8 {fill:#3F7BFF;fill-rule:nonzero}
    .fil4 {fill:#DFDFDF;fill-rule:nonzero}
    .fil2 {fill:#E6E6E6;fill-rule:nonzero}
    .fil5 {fill:#EBEBEB;fill-rule:nonzero}
    .fil0 {fill:#EFEFEF;fill-rule:nonzero}
    .fil1 {fill:#F4F4F4;fill-rule:nonzero}
    .fil6 {fill:#F9F9F9;fill-rule:nonzero}
    .fil16 {fill:#FF5652;fill-rule:nonzero}
    .fil17 {fill:#FF8A7B;fill-rule:nonzero}
    .fil3 {fill:white;fill-rule:nonzero}
    .fil12 {fill:#3F7BFF;fill-rule:nonzero;fill-opacity:0.101961}
    .fil18 {fill:black;fill-rule:nonzero;fill-opacity:0.200000}
    .fil14 {fill:black;fill-rule:nonzero;fill-opacity:0.301961}
    .fil9 {fill:white;fill-rule:nonzero;fill-opacity:0.301961}
    .fil11 {fill:#3F7BFF;fill-rule:nonzero;fill-opacity:0.400000}
    .fil13 {fill:white;fill-rule:nonzero;fill-opacity:0.400000}
    .fil19 {fill:white;fill-rule:nonzero;fill-opacity:0.501961}
    .fil15 {fill:#3F7BFF;fill-rule:nonzero;fill-opacity:0.600000}
    .fil7 {fill:#F4F4F4;fill-rule:nonzero;fill-opacity:0.678431}
    .fil20 {fill:white;fill-rule:nonzero;fill-opacity:0.701961}
   ]]>
  </style>
 </defs>
 <g id="Camada_x0020_1">
  <metadata id="CorelCorpID_0Corel-Layer"/>
  <g id="_1796531516864">
   <g>
    <g>
     <g>
      <g>
       <polygon class="fil0" points="10736.45,11318.76 12244.82,11318.76 12244.82,7173.06 10736.45,7173.06 "/>
       <polygon class="fil0" points="4150.79,11318.76 11955.2,11318.76 11955.2,11611.92 4150.79,11611.92 "/>
       <polygon class="fil1" points="10736.45,11318.76 3861.18,11318.76 3861.18,7173.06 10736.45,7173.06 "/>
       <polygon class="fil0" points="10762.87,8971.11 3861.18,8971.11 3861.18,7453.71 10762.87,7453.71 "/>
       <polygon class="fil0" points="10762.87,10765.27 3861.18,10765.27 3861.18,9247.86 10762.87,9247.86 "/>
       <polygon class="fil2" points="10736.45,8971.11 10997.4,8971.11 10997.4,7453.71 10736.45,7453.71 "/>
       <polygon class="fil2" points="10736.45,10765.27 10997.4,10765.27 10997.4,9247.86 10736.45,9247.86 "/>
      </g>
      <polygon class="fil0" points="3660.18,6918.01 10736.45,6918.01 10736.45,7173.06 3660.18,7173.06 "/>
      <polygon class="fil2" points="12455.61,6918.01 10736.45,6918.01 10736.45,7173.06 12455.61,7173.06 "/>
     </g>
     <g>
      <polygon class="fil0" points="8988.06,1676.18 12537.69,1676.18 12537.69,6138.1 8988.06,6138.1 "/>
      <polygon class="fil1" points="8204.47,1676.18 12401.68,1676.18 12401.68,6138.1 8204.47,6138.1 "/>
      <polygon class="fil3" points="12050.04,2027.79 12050.04,5786.48 8556.09,5786.48 8556.09,2027.79 "/>
      <g>
       <polygon class="fil2" points="10689.93,4314.03 11357.68,4004.49 11357.68,3809.68 10689.93,3499.59 10689.93,3732.68 11095.75,3907.46 10689.93,4082.36 "/>
       <polygon class="fil2" points="10254.56,3409.69 10132.5,3409.69 10348.73,4404.59 10469.62,4404.59 "/>
       <polygon class="fil2" points="9916.2,4082.36 9510.39,3907.46 9916.2,3732.68 9916.2,3499.59 9248.45,3809.68 9248.45,4004.49 9916.2,4314.03 "/>
      </g>
     </g>
     <g>
      <polygon class="fil0" points="2018.86,11611.93 2251.54,11611.93 2251.54,4039.84 2018.86,4039.84 "/>
      <path class="fil0" d="M1970.62 11559.18l-6.32 -32.45c2.48,-0.52 63.5,-14.01 109.89,-96.16 60.51,-107.13 97.28,-335.28 -70.91,-813.86 -259.16,-737.25 -104.48,-1332.23 203.7,-2517.6 53.65,-206.46 114.51,-440.49 177.66,-693.13 236.8,-947.2 17.74,-1534.71 -158.27,-2006.79 -136.64,-366.45 -244.54,-655.91 -106.41,-991.19l30.53 12.59c-133.16,323.31 -27.27,607.38 106.85,967.07 177.6,476.36 398.63,1069.18 159.37,2026.32 -63.21,252.79 -124.05,486.9 -177.75,693.44 -306.49,1178.86 -460.32,1770.6 -204.5,2498.32 172.98,492.13 132.22,729.93 67.55,842.76 -54.26,94.7 -128.24,110.06 -131.39,110.67z"/>
      <polygon class="fil0" points="1714.15,11611.93 2556.26,11611.93 2322.1,11473.95 1948.3,11473.95 "/>
      <polygon class="fil1" points="469.31,5004.13 3801.1,5004.13 3434.45,2204.27 835.96,2204.27 "/>
     </g>
     <g>
      <polygon class="fil0" points="5410.97,5465.67 7189.86,5465.67 6955.72,6918.01 5645.11,6918.01 "/>
      <g>
       <path class="fil4" d="M6125.62 5938.23c485.02,-175.55 856.62,-439.19 440.93,-972.54 -415.67,-533.34 -1059.77,-531.11 -1493.76,-295.01 -553.21,300.93 -442.28,1171.36 -442.28,1171.36 0,0 1010.09,271.74 1495.11,96.19z"/>
       <path class="fil2" d="M6597.25 5452.23c-371.13,-252.58 -634.24,-545.23 -203.62,-853.76 430.62,-308.53 961.48,-150.38 1280.58,136.28 406.74,365.42 172.01,1006.75 172.01,1006.75 0,0 -877.84,-36.7 -1248.97,-289.27z"/>
       <path class="fil0" d="M5944.01 4812.01c434.14,-26.31 798.21,-139.54 592.64,-609.8 -205.56,-470.27 -725.87,-601.73 -1133.59,-521.23 -519.7,102.61 -642.15,752.85 -642.15,752.85 0,0 748.96,404.52 1183.1,378.18z"/>
       <path class="fil5" d="M6488.71 4534.61c-361.15,-116.09 -644.28,-290.47 -368.93,-643.37 275.35,-352.92 743.4,-351.5 1070.49,-195.34 416.95,199.03 379.85,774.91 379.85,774.91 0,0 -720.28,179.89 -1081.41,63.8z"/>
       <path class="fil1" d="M5811.86 3932.18c360.25,118.79 691.78,144.56 677.02,-302.82 -14.78,-447.36 -393.92,-721.81 -750.25,-788.18 -454.19,-84.6 -763.28,402.71 -763.28,402.71 0,0 476.27,569.49 836.52,688.29z"/>
       <path class="fil6" d="M6726.24 3740.23c-257.88,17.58 -481.08,-21.4 -395.77,-314.24 85.31,-292.84 381.95,-409.97 628.39,-393.61 314.13,20.86 435.86,394.77 435.86,394.77 0,0 -410.58,295.51 -668.48,313.09z"/>
      </g>
     </g>
    </g>
    <path class="fil7" d="M12812.38 12730.02c0,206.63 -2868.14,374.12 -6406.19,374.12 -3538.05,0 -6406.19,-167.5 -6406.19,-374.12 0,-206.61 2868.14,-374.14 6406.19,-374.14 3538.05,0 6406.19,167.53 6406.19,374.14z"/>
    <g>
     <g>
      <polygon class="fil8" points="11998.74,7676.14 773.1,7676.14 773.1,7273.29 11998.74,7273.29 "/>
      <polygon class="fil9" points="3777.38,7676.14 773.1,7676.14 773.1,7273.29 3777.38,7273.29 "/>
      <polygon class="fil8" points="3825.48,7676.14 3564.01,7676.14 3700.96,12723.97 3825.48,12723.97 3950.01,12723.97 4086.94,7676.14 "/>
      <polygon class="fil9" points="3700.96,12723.97 3825.48,12723.97 3825.48,7784.6 3568.23,7831.62 "/>
      <polygon class="fil8" points="1348.3,7676.14 1086.84,7676.14 1223.78,12723.97 1348.3,12723.97 1472.84,12723.97 1609.79,7676.14 "/>
      <polygon class="fil9" points="1223.78,12723.97 1348.3,12723.97 1348.3,7784.6 1091.06,7831.62 "/>
      <polygon class="fil8" points="11423.52,7676.14 11162.05,7676.14 11299,12723.97 11423.52,12723.97 11548.06,12723.97 11684.99,7676.14 "/>
      <polygon class="fil9" points="11299,12723.97 11423.52,12723.97 11423.52,7784.6 11166.28,7831.62 "/>
      <polygon class="fil8" points="8946.36,7676.14 8684.88,7676.14 8821.83,12723.97 8946.36,12723.97 9070.88,12723.97 9207.83,7676.14 "/>
      <polygon class="fil9" points="8821.83,12723.97 8946.36,12723.97 8946.36,7784.6 8689.1,7831.62 "/>
     </g>
     <g>
      <path class="fil10" d="M6101.58 5117.19l-2670.84 0c-95.87,0 -157.86,78.45 -137.77,174.32l355.71 1696.63c20.11,95.87 115,174.3 210.87,174.3l2670.83 0c95.89,0 157.88,-78.43 137.77,-174.3l-355.71 -1696.63c-20.1,-95.87 -114.98,-174.32 -210.85,-174.32z"/>
      <path class="fil3" d="M3884.24 7065.63c-62.71,0 -129.34,-55.57 -142.61,-118.88l-355.7 -1696.65c-5.48,-26.14 -1.09,-49.64 12.35,-66.17 12.59,-15.57 32.92,-24.11 57.16,-24.11l2670.84 0c62.68,0 129.34,55.55 142.66,118.91l355.7 1696.6c5.45,26.11 1.05,49.64 -12.37,66.19 -12.82,15.75 -32.57,24.11 -57.19,24.11l-2670.84 0z"/>
      <path class="fil11" d="M5899.41 6929.9l-337 -1607.46c-8.54,-40.68 22.51,-78.9 64.06,-78.9l433.38 0c30.97,0 57.71,21.71 64.08,52.03l337 1607.48c8.54,40.67 -22.51,78.89 -64.08,78.89l-433.37 0c-30.99,0 -57.71,-21.71 -64.08,-52.03z"/>
      <g>
       <polygon class="fil8" points="3608.4,5382.98 3593.78,5313.25 4129.01,5313.25 4143.64,5382.98 "/>
       <polygon class="fil5" points="3855.46,5555.92 3840.84,5486.2 4779.04,5486.2 4793.66,5555.92 "/>
       <polygon class="fil5" points="3904.86,5728.86 3890.25,5659.13 4941.74,5659.13 4956.35,5728.86 "/>
       <polygon class="fil5" points="3954.28,5901.81 3939.67,5832.08 4786.35,5832.08 4800.98,5901.81 "/>
      </g>
      <g>
       <polygon class="fil8" points="3771.05,6182.44 3756.42,6112.72 4094.99,6112.72 4109.61,6182.44 "/>
       <polygon class="fil5" points="4018.1,6355.38 4003.47,6285.65 4415.99,6285.65 4430.61,6355.38 "/>
       <polygon class="fil5" points="4529.41,6355.38 4514.8,6285.65 4927.31,6285.65 4941.94,6355.38 "/>
       <polygon class="fil5" points="4067.51,6528.33 4052.89,6458.6 5447.25,6458.6 5461.86,6528.33 "/>
       <polygon class="fil5" points="4116.92,6701.26 4102.3,6631.53 5165.44,6631.53 5180.05,6701.26 "/>
      </g>
      <path class="fil10" d="M7348.55 7152.24l-3514.35 0c-95.87,0 -157.86,54.47 -137.77,121.06l3862.97 0c-20.1,-66.58 -114.98,-121.06 -210.85,-121.06z"/>
     </g>
     <g>
      <path class="fil12" d="M2679.44 4688.2l-337 -1607.46c-8.52,-40.67 22.51,-78.9 64.06,-78.9l2729.31 0c30.97,0 57.71,21.72 64.06,52.03l337.01 1607.48c8.52,40.68 -22.53,78.9 -64.08,78.9l-2729.3 0c-30.97,0 -57.71,-21.72 -64.08,-52.04z"/>
      <g>
       <g>
        <g>
         <polygon class="fil8" points="3649.58,3054.84 3076.73,3054.84 3063.88,2993.2 3636.74,2993.2 "/>
         <polygon class="fil11" points="3556.41,3153.13 3326.48,3153.13 3313.62,3091.48 3543.56,3091.48 "/>
         <polygon class="fil11" points="3939.04,3153.13 3584.76,3153.13 3571.91,3091.48 3926.19,3091.48 "/>
         <polygon class="fil11" points="4093.48,3251.41 3346.98,3251.41 3334.11,3189.77 4080.62,3189.77 "/>
         <polygon class="fil11" points="3998.49,3349.7 3367.45,3349.7 3354.6,3288.05 3985.65,3288.05 "/>
        </g>
        <polygon class="fil11" points="4417.1,4394.24 4015.41,4394.24 4028.26,4455.89 4429.96,4455.89 "/>
        <g>
         <polygon class="fil8" points="3916.18,4259.32 3327.84,4259.32 3314.99,4197.67 3903.33,4197.67 "/>
         <polygon class="fil11" points="4152.93,4492.54 3605.71,4492.54 3618.56,4554.17 4165.78,4554.17 "/>
         <polygon class="fil11" points="3986.91,4394.24 3585.22,4394.24 3598.07,4455.89 3999.76,4455.89 "/>
         <polygon class="fil11" points="4368.11,4295.96 3564.72,4295.96 3577.58,4357.6 4380.96,4357.6 "/>
        </g>
        <g>
         <polygon class="fil8" points="3629.53,2596.3 2981.13,2596.3 2968.3,2534.66 3616.68,2534.66 "/>
         <polygon class="fil11" points="3949.5,2829.53 3234.66,2829.53 3247.51,2891.17 3962.35,2891.17 "/>
         <polygon class="fil11" points="3806.44,2731.24 3214.16,2731.24 3227.01,2792.89 3819.31,2792.89 "/>
         <polygon class="fil11" points="3846,2632.96 3193.67,2632.96 3206.52,2694.6 3858.85,2694.6 "/>
        </g>
        <g>
         <polygon class="fil8" points="3622.04,3509.63 3171.55,3509.63 3158.7,3448 3609.19,3448 "/>
         <polygon class="fil11" points="4329.79,3742.85 3449.42,3742.85 3462.28,3804.5 4342.65,3804.5 "/>
         <polygon class="fil11" points="3793.65,3644.57 3428.93,3644.57 3441.78,3706.23 3806.5,3706.23 "/>
         <polygon class="fil11" points="4189.47,3644.57 3824.75,3644.57 3837.6,3706.23 4202.32,3706.23 "/>
         <polygon class="fil11" points="4211.83,3546.28 3408.44,3546.28 3421.29,3607.93 4224.68,3607.93 "/>
         <polygon class="fil11" points="4210.28,4037.74 3510.89,4037.74 3523.74,4099.39 4223.12,4099.39 "/>
         <polygon class="fil11" points="3693.77,3939.44 3490.39,3939.44 3503.25,4001.08 3706.61,4001.08 "/>
         <polygon class="fil11" points="4012.07,3939.44 3721.78,3939.44 3734.64,4001.08 4024.93,4001.08 "/>
         <polygon class="fil11" points="4273.29,3841.15 3469.9,3841.15 3482.77,3902.8 4286.14,3902.8 "/>
        </g>
       </g>
       <g>
        <g>
         <polygon class="fil11" points="4906.3,3824.69 4618.41,3824.69 4605.56,3763.06 4893.45,3763.06 "/>
         <polygon class="fil11" points="5385.33,3824.69 4941.78,3824.69 4928.93,3763.06 5372.49,3763.06 "/>
         <polygon class="fil11" points="5573.53,3922.99 4638.91,3922.99 4626.06,3861.34 5560.68,3861.34 "/>
         <polygon class="fil11" points="5449.44,4021.27 4659.38,4021.27 4646.55,3959.63 5436.58,3959.63 "/>
        </g>
        <g>
         <polygon class="fil11" points="5803.16,3433.63 4908.2,3433.63 4921.05,3495.27 5816.01,3495.27 "/>
         <polygon class="fil11" points="5629.24,3335.34 4887.7,3335.34 4900.56,3396.99 5642.09,3396.99 "/>
         <polygon class="fil8" points="5495.15,3237.06 4678.46,3237.06 4691.32,3298.7 5508.01,3298.7 "/>
        </g>
        <g>
         <polygon class="fil11" points="5843.56,4414.43 4741.35,4414.43 4754.21,4476.08 5856.4,4476.08 "/>
         <polygon class="fil11" points="5177.49,4316.14 4720.86,4316.14 4733.71,4377.79 5190.35,4377.79 "/>
         <polygon class="fil11" points="5673.05,4316.14 5216.42,4316.14 5229.27,4377.79 5685.9,4377.79 "/>
         <polygon class="fil11" points="5706.19,4217.84 4700.37,4217.84 4713.22,4279.49 5719.04,4279.49 "/>
         <polygon class="fil11" points="5678.44,4709.3 4802.83,4709.3 4815.68,4770.95 5691.29,4770.95 "/>
         <polygon class="fil11" points="5036.94,4611 4782.34,4611 4795.19,4672.65 5049.79,4672.65 "/>
         <polygon class="fil11" points="5435.46,4611 5072.02,4611 5084.87,4672.65 5448.33,4672.65 "/>
         <polygon class="fil11" points="5767.67,4512.72 4761.85,4512.72 4774.7,4574.36 5780.52,4574.36 "/>
        </g>
       </g>
       <g>
        <polygon class="fil11" points="3088.9,4785.53 2403.79,4785.53 2416.64,4847.19 3101.75,4847.19 "/>
        <polygon class="fil11" points="2886.21,4687.26 2383.29,4687.26 2396.15,4748.9 2899.06,4748.9 "/>
        <polygon class="fil11" points="3424.79,4687.26 2921.89,4687.26 2934.74,4748.9 3437.64,4748.9 "/>
        <polygon class="fil11" points="3368.61,4588.96 2362.8,4588.96 2375.65,4650.6 3381.48,4650.6 "/>
       </g>
      </g>
     </g>
     <g>
      <polygon class="fil8" points="11063.27,6631.53 10639.11,6631.53 10688.52,7273.29 11013.85,7273.29 "/>
      <polygon class="fil13" points="11063.27,6631.53 10639.11,6631.53 10688.52,7273.29 11013.85,7273.29 "/>
     </g>
     <g>
      <polygon class="fil10" points="1817.98,6185.85 2427.83,6185.85 2219.64,7273.29 1609.79,7273.29 "/>
      <polygon class="fil8" points="2594.74,5894.35 1733.3,5894.35 1974.4,7273.29 2835.83,7273.29 "/>
      <g>
       <polygon class="fil8" points="1682.35,5894.35 1733.3,5894.35 1974.4,7273.29 1923.45,7273.29 "/>
       <polygon class="fil14" points="1682.35,5894.35 1733.3,5894.35 1974.4,7273.29 1923.45,7273.29 "/>
      </g>
      <polygon class="fil3" points="2098.25,7125.89 1908.7,6041.75 2470.9,6041.75 2660.44,7125.89 "/>
      <polygon class="fil15" points="2633.75,7125.89 2444.22,6041.75 2470.9,6041.75 2660.44,7125.89 "/>
     </g>
    </g>
    <g>
     <g>
      <path class="fil10" d="M6861.13 4130.41c12.24,26.49 8.16,54.44 -9.16,62.45 -17.32,8.01 -41.27,-6.96 -53.52,-33.45 -12.24,-26.48 -8.16,-54.43 9.16,-62.43 17.3,-8.02 41.27,6.96 53.52,33.44z"/>
      <path class="fil16" d="M6871.7 4183.73c0,0 10.45,180.61 -21.74,284.98 67.07,22.06 137.49,-34.79 137.49,-34.79l-115.76 -250.2z"/>
      <path class="fil10" d="M6864.37 3913.34c-2.7,2.17 -6.09,3.55 -9.83,3.77 -75.48,4.22 -107.45,56.98 -108.77,59.24 -4.79,8.14 -15.25,10.89 -23.39,6.15 -8.16,-4.75 -10.94,-15.15 -6.26,-23.32 1.67,-2.9 41.9,-71.02 136.52,-76.29 9.45,-0.53 17.53,6.68 18.06,16.15 0.32,5.71 -2.2,10.94 -6.33,14.29z"/>
      <path class="fil17" d="M7834.2 4090.53c102.11,353.66 215.95,628.42 355.3,784.45 0,0 2.49,277.98 -471.09,410.19 -520.75,145.38 -321.03,-189.04 -321.03,-189.04 265.26,-147.22 239.15,-369.26 40.26,-453.78l396.56 -551.81z"/>
      <path class="fil10" d="M8299.88 4807.36c-9.43,-129.37 -21.46,-276.72 -101.29,-280.46 -87.83,-4.1 -596.55,223.19 -705.26,383.48 -108.72,160.31 103.53,317.19 103.53,317.19l703.02 -420.21z"/>
      <g>
       <path class="fil17" d="M7258.21 6808.13l-439.4 -14.48 7.81 368.06c0,0 383.4,-39.5 400.3,-140.24l31.29 -213.34z"/>
       <polygon class="fil17" points="6586.54,6974.23 6540.46,7162.44 6826.62,7161.71 6818.81,6793.65 "/>
       <g>
        <path class="fil8" d="M9022.06 5278.45l-9.16 94.41c-2.98,30.37 -7.22,60.29 -11.07,90.31 -7.72,59.96 -17.15,119.52 -27.45,179.09 -19.9,119.22 -45.69,237.77 -75.13,357.12 -30.96,118.9 -65.03,238.8 -109.85,359.27 -22.83,60.43 -46.53,120.84 -75.12,182.43 -28.35,61.57 -59.12,123.38 -99.2,186.64 -9.14,15.54 -20.33,31.73 -31.1,47.65 -10.57,15.84 -21.65,31.76 -34.5,48.12 -12.7,16.28 -23.85,31.95 -38.89,48.58l-21.56 24.44c-6.99,7.94 -14.16,16 -24.47,25.66 -76.59,75.42 -155.15,120.9 -228.81,153.84 -147.35,64.74 -281.08,89.46 -410.67,104 -64.58,7.67 -128.23,10.65 -190.95,12.05 -62.66,1.73 -124.64,0.35 -186.06,-3.11 -61.4,-2.78 -122.32,-8.77 -182.87,-15.81 -61.33,-7.57 -119.14,-16.88 -183.51,-29.82l10.6 -345.21c212.13,-42.14 434.22,-85.43 624.52,-148.87 47.71,-15.34 93.04,-33.1 134.2,-51.6 41.26,-17.88 78.51,-37.76 106.44,-57.56 27.77,-19.79 45.85,-38.9 48.06,-46.91l9.77 -15.19c3.89,-4.92 8.08,-13.55 12.3,-20.39 4.27,-6.64 8.58,-14.89 12.88,-23.52 4.33,-8.42 8.84,-16.24 13.05,-26.05 34.64,-73.42 68.4,-165.67 95.46,-262.09 27.02,-97.19 52.7,-198.77 73.19,-303.18 22.42,-103.88 40.21,-210.43 58.41,-317.16l25.14 -160.61 22.59 -156.33 693.74 69.82z"/>
        <path class="fil18" d="M9022.06 5278.45l-9.16 94.41c-2.98,30.37 -7.22,60.29 -11.07,90.31 -7.72,59.96 -17.15,119.52 -27.45,179.09 -19.9,119.22 -45.69,237.77 -75.13,357.12 -30.96,118.9 -65.03,238.8 -109.85,359.27 -22.83,60.43 -46.53,120.84 -75.12,182.43 -28.35,61.57 -59.12,123.38 -99.2,186.64 -9.14,15.54 -20.33,31.73 -31.1,47.65 -10.57,15.84 -21.65,31.76 -34.5,48.12 -12.7,16.28 -23.85,31.95 -38.89,48.58l-21.56 24.44c-6.99,7.94 -14.16,16 -24.47,25.66 -76.59,75.42 -155.15,120.9 -228.81,153.84 -147.35,64.74 -281.08,89.46 -410.67,104 -64.58,7.67 -128.23,10.65 -190.95,12.05 -62.66,1.73 -124.64,0.35 -186.06,-3.11 -61.4,-2.78 -122.32,-8.77 -182.87,-15.81 -61.33,-7.57 -119.14,-16.88 -183.51,-29.82l10.6 -345.21c212.13,-42.14 434.22,-85.43 624.52,-148.87 47.71,-15.34 93.04,-33.1 134.2,-51.6 41.26,-17.88 78.51,-37.76 106.44,-57.56 27.77,-19.79 45.85,-38.9 48.06,-46.91l9.77 -15.19c3.89,-4.92 8.08,-13.55 12.3,-20.39 4.27,-6.64 8.58,-14.89 12.88,-23.52 4.33,-8.42 8.84,-16.24 13.05,-26.05 34.64,-73.42 68.4,-165.67 95.46,-262.09 27.02,-97.19 52.7,-198.77 73.19,-303.18 22.42,-103.88 40.21,-210.43 58.41,-317.16l25.14 -160.61 22.59 -156.33 693.74 69.82z"/>
       </g>
      </g>
      <g>
       <path class="fil8" d="M7071.07 5716.16c106.4,442.13 243.81,1183.36 275.26,2152.5l1934.64 0c10.74,-239.17 -29.7,-1584.74 -224.43,-2559.28 -74.03,-370.54 -437.48,-610.24 -806.18,-527.43 -3.08,0.68 -6.17,1.4 -9.25,2.1 -241.31,54.99 -588.13,143.62 -792.12,221.15 -2.76,1.05 -5.53,2.11 -8.29,3.17 -283.45,108.87 -440.66,412.59 -369.63,707.79z"/>
      </g>
      <path class="fil18" d="M7196.82 6335.54c15.33,92.73 30.67,191.04 44.97,294.23 158.27,-165.25 208.48,-671.46 208.48,-671.46l-253.45 377.22z"/>
      <g>
       <path class="fil17" d="M5589.72 6831.93l-437.71 -41.05 -14.48 367.86c0,0 225.46,74.09 408.04,-115.77l44.14 -211.05z"/>
       <polygon class="fil17" points="4941.94,6899.49 4800.98,7152.24 5137.53,7158.75 5152.01,6790.89 "/>
       <path class="fil8" d="M7797 5547.95c-30.53,58.04 -57.5,109.06 -87.88,162 -29.79,52.32 -59.7,104.39 -91.02,155.65 -61.99,102.92 -126.65,204.29 -194.55,304.31 -135.9,200.08 -281.79,395.47 -452.99,582.92 -85.11,94.18 -178.46,185.47 -287.15,273.03 -13.02,10.98 -28.16,21.75 -42.23,32.55 -14.69,10.88 -26.71,20.78 -48.12,34.15 -19.31,12.84 -38.71,24.44 -58.14,34.7 -19.55,11.04 -38.75,20.23 -58.33,28.89 -78.14,34.21 -154.26,55.2 -227.38,69.04 -146.84,25.86 -283.24,23.79 -413.77,9.33 -65.21,-8.73 -128.97,-18.67 -191.54,-34.13 -31.32,-7.19 -62.34,-15.39 -93.2,-24.84 -31.72,-9.05 -59.67,-19.51 -95.19,-31.89l54.69 -341.01c207.42,-28.16 431.71,-64.26 586.37,-134.09 38.59,-16.5 71.81,-35.73 96.23,-55.39 12.27,-9.59 23.52,-18.43 31.19,-27.56 2.55,-2.93 12.55,-11.88 20.45,-19.13 8.2,-7.7 16.33,-14.23 24.65,-22.85 66.29,-64.27 133.12,-141.23 198.53,-223 130.17,-164.55 253.54,-347.36 372.32,-534.07 59.46,-93.44 117.49,-188.6 175.17,-283.98l85.39 -143.66 82.29 -140.91 614.23 329.93z"/>
      </g>
      <polygon class="fil17" points="7266.03,12444.72 6904.32,12444.72 6722.51,11607.09 7084.23,11607.09 "/>
      <path class="fil10" d="M6884.22 12367.2l406.36 0c14.8,0 27.6,10.27 30.81,24.72l71.44 321.5c7.41,33.34 -18.79,64.91 -52.96,64.32 -141.87,-2.43 -210.79,-10.76 -389.5,-10.76 -109.94,0 -251.03,11.42 -402.86,11.42 -148.48,0 -171.64,-150.12 -109.48,-163.71 278.68,-60.98 298.26,-145.04 387.48,-225.25 16.09,-14.46 37.08,-22.24 58.71,-22.24z"/>
      <g>
       <polygon class="fil18" points="7084.36,11607.32 6722.5,11607.32 6823.37,12071.14 7178.26,12039.07 "/>
      </g>
      <path class="fil17" d="M7718.34 3665.74c130.46,334.44 223.81,523.56 136.78,766.44 -130.93,365.36 -601.23,402.12 -828.99,113.4 -204.99,-259.87 -383.89,-763.13 -125.43,-1039.79 254.65,-272.59 687.18,-174.48 817.64,159.95z"/>
      <path class="fil10" d="M7083.16 4166.67c-54.32,72.81 -95.7,127.85 -95.7,127.85 0,0 -111.35,-276.55 -68.75,-403.35 -54.23,-107.42 -163.58,50.86 -204.87,-158.32 -41.27,-209.18 137.25,-433.85 204.87,-480.32 9.51,15.48 9.02,75.04 9.02,75.04 0,0 267.28,-238.22 647.86,-204.82 -26.14,26.14 -36.32,97.33 -36.32,97.33 0,0 392.22,67.3 481.29,288.1 -56.16,-27.12 -98.77,-34.86 -98.77,-34.86 0,0 112.34,139.45 79.4,354.44 -32.92,214.98 -48.41,452.43 -44.54,546.18 3.87,93.74 -253.72,273.09 -410.6,81.35 -156.89,-191.76 -462.9,-288.6 -462.9,-288.6z"/>
      <path class="fil17" d="M7246.87 4094.65c22.63,81.82 11.23,170.02 -16.69,234.67 -41.99,97.27 -128.07,75.1 -170.94,-11.21 -38.59,-77.7 -63.22,-221.92 5.15,-291.01 67.34,-68.09 156.6,-26.01 182.49,67.55z"/>
      <g>
       <path class="fil8" d="M7926.15 7868.66c0,0 -1679.74,608.97 -1729.26,1415.04 -91.21,1484.46 516.01,2659.77 516.01,2659.77l556.41 -59.49c0,0 -98.92,-477.77 -172.86,-1822.66 -92.88,-1689.86 2775.2,39.6 2184.52,-2192.66l-1354.82 0z"/>
       <path class="fil19" d="M7926.15 7868.66c0,0 -1679.74,608.97 -1729.26,1415.04 -91.21,1484.46 516.01,2659.77 516.01,2659.77l556.41 -59.49c0,0 -98.92,-477.77 -172.86,-1822.66 -92.88,-1689.86 2775.2,39.6 2184.52,-2192.66l-1354.82 0z"/>
      </g>
      <path class="fil8" d="M6558.77 11738.63c-2.64,0.27 88.52,246.94 88.52,246.94l694.76 -67.98 -34.86 -224.7 -748.41 45.74z"/>
      <g>
       <polygon class="fil17" points="5703.4,12485.75 5341.7,12485.75 5236.02,11648.1 5597.73,11648.1 "/>
       <path class="fil10" d="M5338.85 12367.06l395 -0.53c14.78,-0.02 27.6,10.24 30.84,24.65l71.9 321.41c7.44,33.31 -17.82,64.96 -51.95,64.41 -142.49,-2.22 -348.4,-10.28 -527.51,-10.04 -209.41,0.29 -249.54,11.77 -495.12,12.11 -148.49,0.21 -189.92,-149.86 -127.79,-163.55 282.89,-62.28 373.21,-69.04 617.53,-220.15 26.55,-16.42 55.87,-28.26 87.1,-28.32z"/>
       <polygon class="fil18" points="5236.12,11648.33 5293.61,12104.56 5652.39,12080.1 5597.97,11648.33 "/>
      </g>
      <g>
       <path class="fil8" d="M7346.33 7868.66c0,0 -2752.52,244.12 -2722.83,1626.45 30.9,1437.82 568.02,2407.63 568.02,2407.63l537.46 0c0,0 -101.89,-745.88 -83.82,-2161.44 5.41,-424.1 862.31,-564.21 1699.21,-613.68 722.91,-42.73 1399.59,-454.8 1680.42,-1122.29l57.48 -136.66 -1735.95 0z"/>
       <path class="fil19" d="M7346.33 7868.66c0,0 -2752.52,244.12 -2722.83,1626.45 30.9,1437.82 568.02,2407.63 568.02,2407.63l537.46 0c0,0 -101.89,-745.88 -83.82,-2161.44 5.41,-424.1 862.31,-564.21 1699.21,-613.68 722.91,-42.73 1399.59,-454.8 1680.42,-1122.29l57.48 -136.66 -1735.95 0z"/>
      </g>
      <path class="fil8" d="M5065.82 11758.22c-2.46,0.17 92.12,248.43 92.12,248.43l648.73 -46.33 -37.83 -224.9 -703.02 22.8z"/>
     </g>
     <g>
      <g>
       <path class="fil10" d="M8068.63 6314.97l-349.12 1345.8c-89.05,343.25 -134.23,698.48 -134.23,1055.44l0 625.61c0,157.94 116.44,285.98 260.05,285.98l1790.35 0c143.63,0 260.05,-128.04 260.05,-285.98l0 -625.61c0,-356.96 45.16,-712.18 134.21,-1055.44l308.42 -1188.87c47.4,-182.67 -77.34,-364.45 -250.07,-364.45l-1769.59 0c-116.13,0 -218.2,84.7 -250.07,207.52z"/>
       <path class="fil10" d="M5842.12 8976.21l58.61 333.7c30.84,175.56 185.24,317.89 344.9,317.89l1990.05 0c159.64,0 264.06,-142.34 233.23,-317.9l-58.61 -333.68c-35.08,-199.75 -210.77,-361.68 -392.41,-361.68l-1910.38 0c-181.64,0 -300.45,161.94 -265.37,361.68z"/>
      </g>
      <g>
       <polygon class="fil8" points="8427.23,9962.94 7384.78,9962.94 7282.98,9627.8 8529.02,9627.8 "/>
       <g>
        <polygon class="fil8" points="8092.24,12454.61 7719.77,12454.61 7719.77,9962.94 8092.24,9962.94 "/>
        <polygon class="fil20" points="8092.24,12454.61 7719.77,12454.61 7719.77,10022.79 8092.24,10060.69 "/>
        <polygon class="fil20" points="8001.38,12454.61 7912.41,12454.61 7912.41,10042.39 8001.38,10051.44 "/>
       </g>
       <path class="fil8" d="M8762.42 12839.64l-1712.83 0c-45.82,0 -64.97,-58.55 -28.03,-85.63l271.89 -199.34c130.49,-95.66 288.08,-147.23 449.9,-147.23l325.33 0c161.8,0 319.39,51.57 449.88,147.23l271.89 199.34c36.94,27.09 17.79,85.63 -28.03,85.63z"/>
      </g>
     </g>
    </g>
   </g>
   <path class="fil21" d="M2160.94 532.37l380.75 144.54 0 156.83 -540.14 -240.72 0 -124.55 540.14 -240.06 0 156.83 -380.75 147.12zm731.16 58.09l0 349.1 -163.27 0 0 -939.58 359.43 0c104.97,0 188.23,27.31 249.74,81.94 61.96,54.66 92.94,126.92 92.94,216.84 0,92.07 -30.34,163.7 -90.98,214.91 -60.25,51.18 -144.77,76.79 -253.63,76.79l-194.23 0zm0 -131.01l196.16 0c58.09,0 102.4,-13.57 132.95,-40.65 30.53,-27.54 45.82,-67.11 45.82,-118.75 0,-50.77 -15.49,-91.21 -46.45,-121.33 -30.99,-30.55 -73.58,-46.26 -127.79,-47.09l-200.69 0 0 327.82zm1032.48 -74.86c-20.61,-3.45 -41.93,-5.16 -63.86,-5.16 -71.84,0 -120.25,27.53 -145.2,82.61l0 477.53 -156.8 0 0 -698.25 149.71 0 3.86 78.11c37.89,-60.67 90.36,-91.01 157.44,-91.01 22.42,0 40.92,3.02 55.52,9.04l-0.67 147.14zm46.51 199.41c0,-68.4 13.57,-129.94 40.65,-184.57 27.1,-55.08 65.2,-97.22 114.22,-126.5 49.02,-29.67 105.41,-44.52 169.03,-44.52 94.26,0 170.61,30.34 229.13,91.01 58.94,60.64 90.77,141.09 95.52,241.34l0.65 36.78c0,68.85 -13.32,130.37 -40,184.57 -26.25,54.2 -64.17,96.16 -113.6,125.83 -49.02,29.7 -105.85,44.52 -170.38,44.52 -98.51,0 -177.46,-32.69 -236.81,-98.07 -58.99,-65.82 -88.41,-153.38 -88.41,-262.64l0 -7.75zm156.77 13.54c0,71.87 14.86,128.21 44.52,169.09 29.74,40.44 71,60.66 123.93,60.66 52.93,0 94.02,-20.66 123.26,-61.95 29.7,-41.3 44.52,-101.75 44.52,-181.33 0,-70.56 -15.25,-126.48 -45.83,-167.78 -30.09,-41.3 -71.18,-61.96 -123.27,-61.96 -51.18,0 -91.8,20.43 -121.95,61.3 -30.09,40.44 -45.18,101.11 -45.18,181.99zm911.87 229.75c39.19,0 71.61,-11.41 97.45,-34.21 25.84,-22.8 39.6,-50.98 41.32,-84.54l147.79 0c-1.75,43.46 -15.33,84.11 -40.67,121.98 -25.41,37.42 -59.82,67.11 -103.27,89.05 -43.43,21.94 -90.36,32.89 -140.7,32.89 -97.62,0 -175.12,-31.6 -232.3,-94.85 -57.19,-63.24 -85.84,-150.56 -85.84,-262l0 -16.12c0,-106.29 28.41,-191.25 85.19,-254.92 56.83,-64.09 134.26,-96.16 232.3,-96.16 83.06,0 150.6,24.31 202.68,72.93 52.45,48.19 80.01,111.64 82.61,190.36l-147.79 0c-1.72,-40 -15.48,-72.9 -41.32,-98.71 -25.37,-25.82 -57.85,-38.74 -97.45,-38.74 -50.75,0 -89.92,18.5 -117.44,55.51 -27.51,36.56 -41.5,92.29 -41.93,167.13l0 25.16c0,75.73 13.5,132.31 40.62,169.73 27.56,37.01 67.16,55.51 118.75,55.51zm827.94 43.87c-46,54.22 -111.43,81.3 -196.12,81.3 -75.77,0 -133.19,-22.13 -172.36,-66.45 -38.69,-44.33 -58.04,-108.42 -58.04,-192.32l0 -452.39 156.8 0 0 450.46c0,88.61 36.76,132.94 110.35,132.94 76.11,0 127.54,-27.31 154.22,-81.97l0 -501.42 156.85 0 0 698.25 -147.79 0 -3.9 -68.4zm676.98 -486.57c-20.66,-3.45 -41.94,-5.16 -63.92,-5.16 -71.84,0 -120.19,27.53 -145.2,82.61l0 477.53 -156.8 0 0 -698.25 149.72 0 3.9 78.11c37.84,-60.67 90.3,-91.01 157.45,-91.01 22.35,0 40.85,3.02 55.45,9.04l-0.61 147.14zm496.88 554.97c-6.87,-13.32 -12.93,-35.05 -18.08,-65.18 -49.89,52.07 -110.95,78.08 -183.23,78.08 -70.18,0 -127.35,-19.99 -171.69,-60 -44.28,-40.01 -66.45,-89.47 -66.45,-148.42 0,-74.44 27.5,-131.43 82.61,-171.02 55.49,-40.01 134.62,-60.02 237.46,-60.02l96.19 0 0 -45.82c0,-36.12 -10.18,-64.96 -30.37,-86.45 -20.22,-21.97 -51,-32.93 -92.27,-32.93 -35.73,0 -64.97,9.04 -87.76,27.12 -22.83,17.64 -34.24,40.21 -34.24,67.75l-156.8 0c0,-38.28 12.67,-74 38.1,-107.13 25.34,-33.56 59.76,-59.81 103.21,-78.73 43.9,-18.91 92.74,-28.39 146.52,-28.39 81.76,0 146.94,20.64 195.55,61.96 48.6,40.85 73.52,98.5 74.83,172.95l0 314.92c0,62.8 8.84,112.91 26.43,150.36l0 10.95 -160.02 0zm-172.3 -112.93c31,0 60.02,-7.52 87.1,-22.59 27.59,-15.05 48.19,-35.26 62.01,-60.64l0 -131.64 -84.6 0c-58.09,0 -101.7,10.1 -130.96,30.34 -29.26,20.2 -43.92,48.81 -43.92,85.81 0,30.11 9.92,54.2 29.67,72.28 20.26,17.64 47.12,26.45 80.69,26.45z"/>
   <path class="fil22" d="M7342.93 939.56l0 -939.58 289.08 0c82.59,0 156.44,18.7 221.38,56.13 65.34,37.01 116.36,89.9 152.94,158.75 36.58,68.42 54.85,146.27 54.85,233.62l0 43.22c0,87.35 -18.11,165 -54.2,232.98 -35.74,67.96 -86.25,120.66 -151.7,158.09 -65.34,37.43 -139.18,56.36 -221.3,56.78l-291.06 0zm193.56 -782.77l0 627.25 93.59 0c75.76,0 133.59,-24.73 173.62,-74.19 40.01,-49.48 60.43,-120.25 61.27,-212.32l0 -49.67c0,-95.52 -19.75,-167.8 -59.35,-216.84 -39.57,-49.48 -97.43,-74.22 -173.6,-74.22l-95.52 0zm975.12 795.67c-102.36,0 -185.88,-31.4 -250.39,-94.2 -64.11,-62.83 -96.19,-146.49 -96.19,-251.03l0 -18.06c0,-70.14 13.58,-132.74 40.7,-187.81 27.09,-55.49 65.41,-98.09 114.84,-127.79 49.92,-30.11 106.69,-45.16 170.38,-45.16 95.52,0 170.59,30.11 225.21,90.36 55.08,60.23 82.61,145.62 82.61,256.2l0 76.14 -444.62 0c6.02,45.62 24.09,82.17 54.2,109.71 30.58,27.54 69.09,41.3 115.53,41.3 71.84,0 128.01,-26.02 168.45,-78.08l91.6 102.6c-27.94,39.57 -65.84,70.56 -113.54,92.94 -47.76,21.94 -100.69,32.89 -158.78,32.89zm-21.33 -573.03c-36.94,0 -67.11,12.47 -90.3,37.43 -22.82,24.94 -37.49,60.66 -43.92,107.11l259.42 0 0 -14.83c-0.85,-41.29 -12.02,-73.14 -33.54,-95.52 -21.5,-22.79 -52.09,-34.19 -91.66,-34.19zm667.31 332.35l129.69 -470.46 194.88 0 -235.54 698.25 -178.13 0 -235.51 -698.25 194.88 0 129.72 470.46zm465.94 308.47l-138.78 0 345.91 -1020.25 138.78 0 -345.91 1020.25zm816.33 -481.42l-374.97 -131.01 0 -179.41 562.11 235.55 0 151.65 -562.11 236.2 0 -180.06 374.97 -132.94z"/>
  </g>
 </g>
</svg>
